<?xml version="1.0" standalone="no"?>
<!DOCTYPE svg PUBLIC "-//W3C//DTD SVG 20010904//EN"
 "http://www.w3.org/TR/2001/REC-SVG-20010904/DTD/svg10.dtd">
<svg version="1.0" xmlns="http://www.w3.org/2000/svg"
 width="2000.000000pt" height="2000.000000pt" viewBox="0 0 2000.000000 2000.000000"
 preserveAspectRatio="xMidYMid meet">
<metadata>
Created by potrace 1.14, written by Peter Selinger 2001-2017
</metadata>
<g transform="translate(0.000000,2000.000000) scale(0.100000,-0.100000)"
fill="#000000" stroke="none">
<path d="M10317 17715 c-24 -18 -21 -26 7 -15 15 5 27 5 35 -3 6 -6 11 -7 11
-1 0 19 -35 32 -53 19z"/>
<path d="M10224 17685 c-4 -8 -10 -13 -14 -10 -5 3 -11 1 -15 -4 -3 -6 3 -8
15 -6 15 3 19 -1 18 -19 -2 -17 -7 -22 -18 -18 -13 5 -13 3 0 -14 9 -12 9 -15
1 -7 -7 6 -21 9 -30 6 -14 -4 -14 -3 -1 6 13 9 13 11 -1 11 -9 0 -19 -3 -23
-7 -10 -10 -48 -14 -42 -5 3 5 -1 9 -9 9 -8 0 -12 -4 -9 -9 3 -4 -13 -7 -35
-5 -24 2 -41 -1 -41 -7 0 -7 -3 -8 -8 -1 -4 6 -14 11 -22 13 -10 3 -9 -3 5
-19 l20 -23 -24 17 c-20 13 -28 14 -40 4 -12 -9 -13 -9 -7 1 4 6 2 12 -3 12
-6 0 -11 -4 -11 -10 0 -5 -7 -10 -15 -10 -8 0 -15 6 -15 13 0 9 -2 9 -8 0 -4
-7 -18 -11 -30 -8 -13 2 -20 0 -17 -5 3 -5 1 -11 -5 -15 -5 -3 -10 -2 -10 3 0
6 -8 13 -17 16 -10 4 -14 4 -10 0 4 -4 -1 -13 -11 -20 -15 -12 -15 -13 6 -9
12 2 20 0 17 -5 -6 -9 -24 -8 -43 4 -7 4 -20 2 -29 -6 -12 -9 -15 -9 -9 0 4 6
2 12 -3 12 -6 0 -11 -4 -11 -10 0 -5 -9 -2 -20 7 -20 18 -54 27 -45 13 3 -5 1
-11 -5 -15 -5 -3 -10 -1 -10 6 0 7 -7 4 -16 -7 -8 -10 -13 -13 -9 -6 7 13 -7
17 -19 5 -10 -10 -48 -14 -42 -5 3 5 -1 9 -9 9 -8 0 -12 -4 -9 -9 3 -4 0 -8
-6 -8 -6 0 -8 -5 -4 -12 5 -8 0 -7 -11 2 -11 9 -16 10 -11 3 5 -9 -1 -13 -19
-13 -14 0 -24 -4 -21 -8 2 -4 -4 -8 -15 -8 -10 0 -19 4 -19 9 0 5 -7 1 -16 -7
-8 -9 -20 -17 -25 -17 -5 -1 -13 -3 -19 -4 -5 -1 -15 -3 -21 -4 -6 0 -9 -10
-6 -20 3 -13 1 -18 -9 -14 -7 2 -11 10 -8 17 3 7 -2 19 -11 26 -14 11 -17 10
-22 -9 -3 -14 -11 -20 -20 -17 -8 3 -11 1 -8 -4 6 -9 -7 -14 -27 -11 -4 0 -5
-6 -2 -14 4 -10 -4 -19 -25 -28 -17 -7 -29 -16 -25 -19 3 -4 -2 -5 -11 -4 -9
1 -21 9 -27 17 -7 11 -9 8 -5 -9 5 -19 3 -21 -9 -11 -10 8 -18 9 -25 2 -12
-12 -49 -6 -49 8 0 5 6 6 14 3 8 -3 17 -1 20 5 4 6 13 8 21 4 8 -3 15 0 15 5
0 6 -14 9 -30 7 -21 -3 -28 -1 -24 7 4 7 3 8 -4 4 -7 -4 -12 0 -13 11 0 14 -2
15 -6 3 -3 -8 -11 -19 -17 -23 -6 -5 -3 -6 9 -2 16 5 17 4 8 -6 -10 -10 -16
-9 -29 2 -12 9 -15 10 -10 2 7 -12 -11 -18 -37 -14 -5 1 -6 -3 -3 -8 3 -5 -1
-11 -9 -15 -8 -3 -17 -1 -20 5 -4 5 -13 3 -21 -6 -9 -8 -21 -15 -29 -15 -7 0
-16 -7 -19 -16 -6 -15 -8 -15 -24 0 -21 18 -41 5 -43 -28 -1 -18 -2 -17 -9 4
-7 22 -8 22 -10 5 -1 -11 -2 -23 -1 -27 0 -4 -7 -4 -16 -1 -12 5 -14 3 -8 -8
7 -11 5 -11 -10 1 -11 9 -16 10 -11 3 4 -8 2 -13 -4 -13 -6 0 -8 -6 -5 -12 4
-7 -5 0 -19 16 -23 27 -31 19 -12 -12 4 -7 5 -16 2 -19 -3 -4 -6 -2 -6 4 0 6
-7 13 -15 17 -9 3 -15 0 -15 -10 0 -8 4 -13 9 -10 11 7 8 -21 -4 -31 -4 -4 -5
-2 -1 5 4 7 1 15 -8 18 -9 3 -13 11 -9 17 4 6 1 7 -6 3 -7 -5 -10 -15 -7 -23
3 -8 2 -11 -3 -8 -5 3 -12 1 -15 -4 -3 -5 -20 -7 -38 -6 -29 3 -31 2 -14 -10
13 -10 25 -11 43 -4 33 12 42 11 18 -4 -27 -16 -35 -16 -70 0 l-30 14 28 -25
c15 -15 24 -26 20 -26 -5 0 -14 5 -21 12 -9 9 -12 9 -12 0 0 -7 -4 -12 -10
-12 -5 0 -7 8 -3 18 5 14 3 13 -10 -3 -14 -18 -14 -21 1 -28 11 -4 7 -5 -10
-2 -21 4 -31 0 -43 -19 -9 -13 -28 -27 -43 -31 -20 -5 -23 -8 -12 -15 13 -8
13 -11 1 -22 -8 -7 -11 -8 -8 -2 3 6 0 11 -7 11 -8 0 -12 -6 -9 -13 2 -6 -1
-15 -8 -20 -7 -4 -10 -3 -6 2 3 5 -3 10 -13 10 -15 0 -17 -3 -7 -15 10 -12 9
-13 -10 -3 -19 11 -21 10 -18 -6 2 -15 -2 -18 -21 -16 -13 1 -27 -3 -31 -8 -3
-7 -1 -8 5 -4 7 4 12 2 12 -5 0 -7 -8 -9 -21 -6 -16 4 -18 3 -8 -9 9 -11 9
-14 0 -14 -7 0 -9 -5 -5 -12 4 -7 3 -8 -5 -4 -6 4 -8 12 -5 18 4 7 2 8 -4 4
-7 -4 -12 -14 -12 -22 0 -9 -5 -12 -12 -8 -8 5 -9 2 -5 -10 4 -10 3 -15 -3
-11 -6 3 -11 1 -11 -4 -1 -6 -2 -17 -3 -23 -1 -7 -11 -13 -23 -12 -12 0 -19
-5 -17 -11 7 -18 -22 -39 -32 -24 -4 7 -3 9 2 6 5 -3 10 3 10 14 0 10 -4 19
-8 19 -4 0 -8 -8 -8 -17 0 -14 -2 -15 -9 -4 -5 8 -11 9 -15 3 -3 -5 1 -12 9
-16 25 -9 17 -30 -18 -47 -24 -12 -39 -14 -53 -7 -17 8 -17 8 2 -9 11 -10 31
-26 45 -36 19 -14 15 -13 -18 3 -24 11 -43 17 -43 12 0 -5 15 -16 33 -25 l32
-16 -31 5 c-22 4 -34 1 -45 -13 -13 -16 -12 -17 3 -5 11 9 18 10 23 2 3 -5 4
-11 1 -11 -3 -1 -9 -2 -13 -3 -28 -6 -52 -29 -50 -48 1 -11 -4 -23 -10 -25 -8
-3 -13 3 -13 14 0 15 2 16 10 3 6 -9 10 -10 10 -3 0 20 -16 23 -38 7 -12 -8
-22 -25 -21 -37 1 -21 2 -19 15 23 5 13 6 13 14 0 6 -8 10 -22 10 -30 0 -13
-1 -13 -10 0 -9 13 -10 13 -11 0 -1 -8 -1 -19 0 -23 1 -5 -4 -5 -10 -1 -6 3
-24 8 -40 9 -25 2 -27 0 -18 -16 7 -13 6 -19 -1 -19 -6 0 -13 7 -16 15 -4 8
-11 15 -17 15 -6 0 0 -11 13 -25 17 -18 19 -25 9 -26 -8 -1 -25 -2 -39 -3 -37
-2 -52 -15 -48 -41 4 -18 1 -22 -10 -17 -11 4 -13 2 -7 -9 7 -11 5 -11 -10 1
-17 14 -18 13 -13 -12 5 -24 3 -26 -14 -17 -18 9 -18 8 -9 -10 10 -17 9 -20
-5 -14 -12 4 -15 3 -10 -5 5 -8 1 -10 -11 -5 -16 6 -17 5 -3 -13 14 -18 14
-18 -4 -4 -18 14 -19 13 -13 -3 5 -12 3 -16 -5 -11 -7 5 -9 2 -5 -8 9 -25 -4
-30 -26 -11 -19 17 -20 17 -8 -4 16 -31 14 -39 -7 -20 -13 12 -21 13 -32 6
-13 -9 -12 -10 2 -6 11 4 23 -4 34 -21 l17 -27 -26 18 c-19 12 -25 13 -21 4 3
-8 -2 -20 -11 -27 -12 -10 -18 -10 -32 1 -10 7 -15 10 -11 5 4 -5 3 -17 -3
-28 -10 -18 -8 -18 10 -8 12 6 27 8 33 4 7 -5 8 -3 3 6 -6 9 -4 11 5 5 9 -6
11 -4 5 6 -8 12 -6 12 8 0 9 -7 17 -16 17 -19 0 -3 -3 -3 -6 1 -10 10 -36 -22
-28 -35 4 -7 4 -10 -1 -6 -4 4 -14 3 -21 -3 -8 -7 -14 -6 -20 2 -5 8 -3 9 6 4
9 -6 11 -4 5 5 -5 9 -4 11 3 6 7 -4 12 -2 12 3 0 14 -11 13 -32 -3 -19 -14
-25 -32 -8 -21 6 3 10 -1 10 -9 0 -8 -5 -18 -12 -22 -7 -5 -8 -3 -3 5 6 10 3
11 -16 1 -33 -17 -38 -24 -12 -16 12 4 24 2 29 -5 4 -7 3 -10 -2 -7 -5 3 -17
-4 -27 -14 -12 -12 -13 -18 -5 -17 20 3 49 -12 42 -23 -3 -5 -12 -1 -20 9 -13
17 -13 17 -14 -4 0 -13 5 -23 12 -23 6 0 9 -2 6 -5 -9 -9 -37 6 -34 18 1 7 1
9 -1 4 -3 -4 -10 -4 -16 -1 -8 5 -8 2 1 -7 17 -18 15 -34 -2 -20 -16 13 -32
-2 -21 -19 3 -6 -1 -13 -10 -16 -13 -5 -14 -9 -4 -15 16 -10 50 7 46 24 -1 7
11 13 28 15 l30 3 -24 -13 c-14 -7 -26 -19 -29 -27 -3 -9 0 -11 8 -6 8 5 11 4
6 -3 -4 -6 -14 -8 -23 -5 -12 5 -14 3 -8 -7 5 -9 4 -11 -3 -6 -7 4 -12 1 -12
-8 0 -10 6 -13 18 -10 13 5 14 4 3 -4 -18 -13 -41 -4 -35 13 3 7 2 15 -3 18
-4 3 -8 -8 -8 -23 -1 -16 2 -28 5 -27 3 1 6 -2 7 -8 1 -5 -5 -9 -14 -7 -9 2
-12 -1 -8 -7 3 -6 -1 -14 -10 -17 -12 -5 -13 -9 -4 -20 10 -12 8 -13 -6 -8
-12 5 -16 4 -12 -3 9 -14 -19 -37 -32 -28 -7 4 -8 -1 -4 -11 4 -11 3 -15 -5
-10 -11 6 -26 -10 -27 -29 -1 -5 -7 -9 -14 -7 -7 1 -10 -2 -6 -8 6 -9 -7 -14
-27 -11 -5 0 -8 -4 -8 -9 0 -13 6 -13 30 0 13 7 19 6 23 -5 4 -9 1 -12 -7 -9
-20 8 -50 -44 -36 -61 7 -8 8 -20 4 -26 -5 -9 -10 -5 -16 11 -5 12 -11 20 -15
17 -3 -4 2 -18 11 -32 14 -22 15 -25 1 -25 -18 0 -20 -17 -2 -23 6 -2 18 3 25
12 11 14 12 13 3 -5 -6 -12 -7 -25 -3 -29 4 -5 1 -5 -5 -1 -7 4 -13 2 -13 -3
0 -6 -5 -11 -11 -11 -8 0 -8 5 1 15 7 8 8 15 4 15 -5 0 -15 -9 -22 -20 -10
-16 -10 -20 0 -21 7 0 3 -4 -9 -9 -13 -5 -23 -14 -23 -20 0 -6 -4 -8 -10 -5
-5 3 -10 2 -10 -4 0 -6 -8 -7 -17 -4 -15 6 -16 5 -3 -9 10 -11 17 -12 22 -5 4
6 10 8 15 3 4 -4 0 -12 -10 -17 -9 -6 -15 -15 -11 -20 3 -5 0 -8 -7 -7 -6 2
-14 -3 -17 -11 -3 -8 0 -11 7 -7 7 5 9 1 5 -8 -3 -9 -9 -14 -13 -12 -3 2 -18
-9 -33 -25 -14 -15 -21 -30 -15 -32 5 -1 11 -11 13 -20 2 -14 -3 -16 -19 -12
-16 4 -14 1 6 -10 16 -9 31 -14 35 -11 3 3 0 6 -7 6 -7 0 -9 5 -6 10 5 8 11 8
20 0 10 -8 15 -8 21 1 5 8 3 9 -6 4 -9 -5 -11 -4 -6 3 11 19 25 14 23 -8 -1
-11 -7 -20 -14 -20 -6 0 -15 -5 -19 -12 -4 -6 -3 -8 4 -4 6 3 9 -1 8 -10 -1
-9 -11 -21 -22 -26 -18 -9 -18 -8 1 8 15 13 16 15 3 11 -9 -3 -19 -3 -21 1 -2
4 -2 1 -1 -5 4 -14 -7 -17 -22 -5 -5 4 -1 -1 10 -11 11 -10 26 -15 35 -12 13
4 13 2 -1 -8 -10 -8 -15 -17 -11 -20 3 -4 0 -7 -7 -7 -7 0 -10 -3 -7 -7 4 -3
2 -12 -4 -20 -10 -11 -15 -11 -28 -1 -14 11 -14 11 -3 -4 8 -10 9 -18 3 -22
-12 -8 -3 -36 11 -36 5 0 7 4 3 9 -3 5 -1 12 5 16 6 4 9 9 7 13 -2 4 4 14 14
24 16 15 17 15 22 -3 5 -19 -15 -44 -26 -32 -4 3 -7 -1 -7 -11 0 -9 4 -14 10
-11 6 4 7 -1 3 -10 -3 -10 0 -21 8 -26 11 -7 11 -9 1 -9 -7 0 -10 -5 -6 -12 4
-7 3 -8 -4 -4 -7 4 -12 2 -12 -4 0 -6 -5 -8 -12 -4 -8 5 -8 2 1 -10 12 -15 12
-17 0 -14 -8 2 -18 8 -22 13 -5 6 -7 3 -3 -7 3 -11 0 -18 -7 -18 -8 0 -8 -3 2
-9 11 -7 11 -13 1 -32 -7 -13 -17 -27 -22 -30 -5 -3 -2 -9 7 -12 9 -4 13 -3
10 3 -3 6 -1 10 4 10 6 0 11 -6 11 -14 0 -8 6 -17 13 -19 9 -4 9 -6 -1 -6 -7
-1 -10 -5 -7 -11 3 -5 2 -10 -3 -10 -6 0 -8 -10 -4 -22 4 -18 2 -20 -14 -14
-10 4 -15 4 -11 0 4 -4 2 -13 -5 -21 -9 -11 -7 -12 8 -7 10 4 25 12 33 18 11
8 13 8 8 -1 -4 -6 -4 -13 0 -16 5 -2 2 -2 -6 0 -8 2 -11 -2 -7 -13 5 -12 1
-14 -17 -10 -12 3 -16 3 -9 0 10 -5 10 -9 1 -20 -8 -10 -8 -14 0 -14 6 0 11 5
11 10 0 6 4 10 10 10 5 0 8 -6 6 -12 -3 -7 -7 -26 -11 -41 -5 -24 -8 -27 -20
-17 -9 7 -15 8 -15 2 0 -13 29 -24 43 -15 8 5 8 2 0 -8 -9 -11 -9 -19 -2 -26
8 -8 7 -13 -2 -18 -7 -5 -10 -4 -6 1 3 6 -3 15 -14 22 -18 12 -18 11 -7 -8 11
-17 10 -22 -2 -31 -13 -9 -12 -10 2 -5 10 3 20 2 22 -3 3 -4 -1 -8 -9 -9 -8
-1 -22 -3 -30 -4 -8 -1 -13 -3 -10 -6 2 -3 0 -14 -6 -26 -10 -20 -10 -20 5 -2
9 11 16 16 16 12 0 -5 7 -3 15 4 13 11 14 10 9 -4 -6 -17 5 -21 22 -8 5 4 1
-1 -9 -10 -11 -10 -26 -18 -33 -18 -11 0 -12 -5 -6 -17 12 -25 9 -42 -8 -53
-12 -7 -10 -9 6 -8 17 2 21 8 19 30 -2 16 4 33 14 40 14 11 14 11 3 -4 -10
-13 -10 -17 0 -21 9 -4 9 -6 1 -6 -7 -1 -10 -11 -7 -26 3 -18 0 -25 -11 -25
-8 0 -14 -6 -12 -12 1 -7 -4 -12 -12 -10 -12 3 -12 0 -1 -12 14 -18 25 -22 15
-6 -3 6 -1 10 4 10 6 0 11 -7 11 -15 0 -8 -6 -15 -12 -15 -9 0 -9 -3 1 -9 20
-13 23 -41 5 -41 -11 0 -9 -6 6 -22 18 -19 19 -24 6 -33 -10 -8 -11 -16 -5
-28 8 -13 6 -19 -5 -23 -9 -3 -16 -10 -16 -16 0 -5 4 -7 9 -4 11 7 8 -21 -4
-31 -4 -4 -5 -2 0 6 6 10 4 12 -4 7 -9 -6 -9 -11 -1 -21 13 -16 -3 -30 -22
-19 -10 5 -10 4 -1 -6 6 -7 9 -19 6 -26 -3 -8 0 -14 7 -14 6 0 9 4 6 9 -3 5 2
15 12 22 15 13 16 12 3 -3 -11 -15 -11 -18 0 -18 11 0 11 -2 0 -9 -13 -8 -13
-12 -1 -28 12 -15 11 -15 -9 2 l-24 20 14 -25 c7 -14 12 -31 11 -37 -2 -7 3
-13 10 -13 10 0 9 -3 -1 -9 -13 -8 -13 -12 0 -27 11 -14 11 -16 1 -10 -10 6
-13 3 -10 -10 2 -11 -3 -25 -12 -32 -8 -8 -10 -11 -4 -8 7 3 18 -2 25 -11 10
-12 10 -14 2 -9 -8 4 -13 2 -13 -8 0 -8 -5 -16 -12 -18 -7 -3 -5 -7 6 -11 11
-5 15 -3 10 5 -5 7 -3 8 6 3 10 -6 9 -11 -5 -22 -11 -7 -13 -13 -6 -13 7 0 9
-5 6 -10 -4 -6 -10 -8 -14 -6 -4 3 -8 -1 -8 -9 0 -8 3 -12 7 -10 4 2 7 -3 7
-11 0 -8 -6 -13 -12 -10 -8 3 -11 -5 -9 -20 1 -13 -3 -24 -9 -24 -7 -1 -3 -6
8 -13 21 -13 26 -40 11 -54 -5 -5 -6 -2 -1 6 5 10 4 12 -4 7 -6 -4 -9 -11 -6
-16 3 -4 -1 -11 -7 -14 -7 -2 -2 -4 12 -3 17 1 24 -3 22 -12 -2 -8 3 -18 10
-22 8 -6 9 -9 2 -9 -6 0 -11 -11 -11 -25 0 -21 2 -23 13 -14 12 10 13 9 8 -5
-3 -9 -1 -22 4 -29 6 -7 7 -18 2 -26 -4 -8 -6 -21 -3 -30 4 -14 3 -14 -6 -1
-6 8 -11 11 -11 7 0 -4 -10 -2 -22 4 -22 12 -22 11 -8 -6 11 -14 11 -17 1 -11
-8 5 -17 3 -23 -5 -8 -11 -9 -10 -4 3 3 10 1 20 -4 23 -6 4 -10 -1 -10 -9 0
-9 -4 -16 -10 -16 -5 0 -10 6 -10 13 0 8 -3 9 -8 1 -4 -6 -15 -10 -25 -8 -14
2 -16 0 -7 -11 10 -11 8 -13 -9 -10 -12 2 -21 -1 -21 -7 0 -5 -7 -7 -16 -4
-15 6 -15 4 -3 -11 8 -9 10 -14 4 -12 -10 6 -45 -24 -45 -38 0 -5 -4 -8 -9 -8
-5 0 -13 -4 -18 -9 -5 -5 -3 -6 5 -2 15 9 16 -10 1 -19 -6 -4 -8 -14 -5 -22 4
-9 2 -11 -6 -7 -7 5 -9 2 -5 -8 3 -9 -1 -25 -9 -36 -10 -15 -11 -23 -3 -28 9
-5 7 -11 -5 -19 -15 -12 -15 -13 0 -19 13 -5 14 -9 4 -21 -7 -8 -9 -15 -5 -15
4 0 2 -7 -5 -15 -10 -12 -10 -15 1 -15 11 0 11 -2 -1 -10 -12 -8 -12 -10 -1
-10 10 0 11 -3 2 -14 -9 -11 -9 -15 1 -19 10 -4 10 -6 1 -6 -7 -1 -13 -6 -13
-12 0 -5 6 -7 13 -3 8 5 8 2 -2 -9 -10 -13 -10 -17 -1 -17 10 0 10 -3 1 -14
-8 -10 -9 -16 -1 -21 5 -3 10 -11 10 -16 0 -6 -4 -8 -8 -5 -12 7 -8 -25 7 -53
8 -14 9 -21 2 -17 -6 4 -11 0 -11 -9 0 -10 5 -13 12 -9 7 5 8 3 3 -6 -4 -7 -2
-16 6 -21 11 -7 10 -9 -4 -9 -12 0 -16 -4 -10 -12 4 -7 6 -21 5 -30 -2 -10 3
-18 10 -18 9 0 9 -3 -2 -10 -11 -7 -11 -10 -2 -10 7 0 12 -8 10 -17 -1 -10 1
-24 6 -32 7 -10 5 -12 -5 -6 -8 5 -7 0 3 -11 14 -16 15 -23 6 -32 -9 -9 -9
-12 1 -12 11 0 11 -3 0 -17 -10 -11 -10 -14 -1 -9 8 5 12 0 12 -18 0 -13 6
-27 13 -30 9 -5 9 -7 -1 -12 -9 -4 -10 -10 -3 -18 5 -6 11 -25 13 -41 2 -17 8
-33 13 -37 6 -5 5 -8 -3 -8 -8 0 -5 -8 8 -22 11 -12 20 -27 19 -32 0 -6 -3 -5
-6 2 -10 26 -21 10 -12 -18 7 -18 15 -27 22 -23 7 4 6 -1 -2 -10 -11 -14 -11
-17 0 -17 12 0 12 -2 0 -9 -11 -7 -10 -11 5 -20 14 -8 15 -11 4 -11 -13 0 -13
-1 0 -10 13 -9 13 -10 0 -10 -9 0 -11 -3 -5 -8 14 -10 39 -55 26 -47 -6 3 -11
-1 -11 -9 0 -8 5 -18 11 -21 6 -4 8 -14 5 -22 -3 -8 -2 -12 3 -9 5 3 11 -1 15
-9 3 -8 0 -17 -6 -21 -7 -5 -8 -2 -3 6 6 9 4 11 -4 5 -9 -5 -7 -13 8 -29 12
-12 18 -26 14 -29 -3 -4 -1 -7 7 -7 10 0 10 -4 -1 -17 -8 -9 -9 -14 -4 -11 6
3 16 0 23 -8 8 -9 9 -14 2 -14 -6 0 -4 -7 4 -16 9 -8 14 -20 11 -25 -4 -5 -1
-9 6 -9 8 0 7 -5 -2 -17 -8 -9 -9 -14 -4 -11 6 3 16 0 23 -8 7 -8 9 -14 4 -14
-5 0 -9 -7 -9 -15 0 -11 4 -12 13 -4 9 8 11 5 7 -10 -3 -13 -1 -21 7 -21 7 0
10 -8 7 -20 -3 -13 0 -20 10 -20 8 0 11 -4 8 -10 -3 -5 -1 -10 5 -10 6 0 8 -4
5 -10 -3 -5 -1 -10 5 -10 6 0 8 -4 5 -10 -3 -5 7 -22 22 -37 15 -14 23 -23 17
-20 -6 3 -11 0 -11 -8 0 -8 8 -12 20 -10 13 3 17 0 13 -11 -3 -8 3 -23 14 -34
13 -13 15 -20 7 -24 -7 -2 -1 -5 12 -5 13 -1 21 -4 18 -7 -10 -10 13 -45 24
-39 5 4 9 3 8 -2 -1 -4 -1 -15 0 -23 1 -13 2 -13 12 0 9 12 10 11 6 -6 -3 -15
0 -21 12 -20 9 0 15 -5 14 -11 -2 -7 4 -13 12 -13 8 0 20 -9 27 -20 14 -22 33
-28 23 -7 -4 6 0 4 8 -5 8 -10 17 -15 20 -11 4 3 7 -2 7 -12 0 -10 3 -15 7
-12 3 4 13 1 21 -6 13 -10 14 -9 7 3 -5 9 0 8 13 -4 12 -11 22 -15 22 -11 0 5
7 0 15 -11 9 -12 14 -14 15 -6 0 7 5 10 10 7 8 -5 7 -12 -2 -23 -7 -9 -8 -13
-2 -9 7 4 18 -1 25 -10 10 -12 10 -14 2 -9 -7 4 -13 2 -13 -3 0 -6 6 -11 13
-11 8 0 7 -4 -3 -10 -12 -8 -12 -10 5 -10 17 0 17 -2 5 -10 -12 -8 -12 -10 -1
-10 10 0 11 -3 2 -14 -10 -11 -9 -16 5 -24 11 -6 13 -12 5 -16 -7 -5 -6 -15 7
-34 9 -14 11 -23 5 -19 -19 12 -16 -4 5 -20 9 -8 11 -12 5 -8 -15 7 -18 -21
-3 -30 6 -3 8 -18 6 -31 -4 -21 -2 -23 9 -14 10 8 13 8 11 -2 -1 -7 -5 -18 -9
-25 -4 -6 -3 -14 3 -18 5 -3 10 -1 10 6 0 7 3 10 6 7 3 -4 1 -15 -5 -27 -9
-16 -8 -22 6 -29 15 -9 15 -12 3 -29 -14 -17 -14 -17 6 0 20 17 21 16 19 -5
-1 -13 7 -41 18 -63 16 -33 17 -37 3 -26 -14 12 -16 12 -10 -2 3 -8 12 -18 21
-21 8 -4 13 -13 9 -21 -3 -10 1 -15 12 -15 15 0 15 -2 2 -10 -9 -6 -10 -10 -3
-10 7 0 11 -13 11 -31 -1 -22 6 -37 23 -50 20 -16 22 -20 9 -29 -13 -8 -13
-10 2 -10 12 0 15 -6 11 -22 -4 -19 -3 -20 7 -8 10 12 11 11 7 -7 -3 -16 0
-23 9 -23 8 0 14 -5 14 -11 0 -5 -4 -8 -9 -4 -5 3 -13 0 -17 -6 -4 -7 -3 -9 2
-6 6 3 16 2 24 -4 12 -7 12 -9 1 -9 -10 0 -11 -3 -2 -13 6 -8 7 -18 3 -23 -4
-4 1 -2 11 5 15 12 17 12 11 -4 -6 -14 -4 -16 7 -10 12 8 12 6 0 -8 -12 -15
-12 -17 4 -11 13 5 16 4 11 -4 -4 -7 -2 -12 3 -12 6 0 10 -3 10 -7 -4 -22 2
-33 14 -27 7 5 6 0 -3 -11 -8 -10 -10 -16 -3 -12 6 4 14 3 18 -3 4 -6 11 -7
17 -4 7 4 8 2 4 -5 -4 -6 -12 -9 -17 -6 -5 4 -9 1 -9 -4 0 -6 7 -11 15 -11 16
0 38 -34 28 -44 -3 -3 -1 -6 6 -6 7 0 9 -5 5 -12 -5 -8 -2 -9 11 -4 15 5 16 4
5 -9 -10 -12 -10 -15 4 -15 10 0 14 -4 11 -10 -3 -5 -1 -10 4 -10 6 0 11 -7
11 -15 0 -8 5 -15 10 -15 6 0 10 -9 10 -21 0 -11 5 -17 10 -14 6 3 10 1 10 -5
0 -6 5 -8 12 -4 7 4 8 3 4 -5 -4 -6 -13 -8 -19 -4 -7 4 -6 0 2 -10 7 -9 18
-14 25 -10 6 4 5 -1 -3 -10 -11 -15 -10 -18 12 -26 20 -8 25 -16 23 -39 -1
-21 2 -28 11 -25 9 4 11 0 6 -13 -4 -12 -3 -15 5 -10 8 5 10 2 6 -8 -4 -10 -1
-16 7 -16 11 0 11 -3 -1 -11 -12 -9 -10 -10 9 -5 16 3 21 2 14 -5 -12 -12 -5
-49 9 -49 5 0 7 -4 4 -9 -4 -5 0 -12 6 -14 10 -4 10 -6 0 -6 -10 -1 -10 -5 2
-17 9 -8 14 -20 10 -25 -3 -6 0 -16 6 -24 7 -8 10 -22 6 -30 -3 -8 -1 -15 5
-15 6 0 7 -4 4 -10 -3 -5 -2 -10 4 -10 6 0 7 -7 4 -17 -4 -9 -2 -14 3 -10 6 3
9 -7 8 -24 -1 -16 2 -29 8 -29 5 0 6 -5 3 -10 -4 -6 -1 -18 7 -27 9 -12 9 -15
1 -9 -7 4 -13 2 -13 -3 0 -6 5 -11 11 -11 6 0 8 -9 4 -20 -4 -11 -2 -20 4 -20
6 0 11 -5 11 -11 0 -5 -6 -7 -12 -3 -10 6 -10 4 0 -8 7 -9 12 -20 11 -24 -4
-21 2 -35 12 -29 6 4 5 -3 -3 -15 -11 -18 -11 -22 5 -31 18 -10 18 -12 1 -30
-14 -15 -14 -19 -3 -14 12 5 15 -2 14 -30 -2 -25 3 -39 13 -42 12 -5 12 -8 -4
-20 -16 -12 -10 -18 17 -15 3 1 6 -5 6 -13 0 -8 -5 -11 -10 -8 -7 4 -7 -1 -2
-13 4 -10 9 -39 10 -63 2 -24 9 -47 16 -52 11 -7 11 -9 -1 -9 -12 0 -12 -2 -2
-9 15 -9 15 -20 0 -38 -7 -9 -5 -15 7 -19 13 -5 14 -9 3 -15 -11 -7 -11 -9 1
-9 7 0 11 -6 8 -15 -4 -8 -2 -17 3 -20 6 -3 8 -24 7 -45 -2 -21 0 -37 4 -34
15 9 20 -17 7 -33 -7 -9 -8 -14 -2 -10 7 4 14 -3 16 -18 4 -18 1 -25 -11 -26
-9 -1 -5 -5 9 -9 17 -5 19 -8 8 -9 -10 -1 -18 -5 -18 -11 0 -5 -7 -6 -17 -3
-11 5 -14 3 -8 -6 6 -10 3 -11 -13 -2 -16 8 -24 8 -36 -4 -11 -11 -16 -12 -19
-2 -4 9 -8 9 -15 -2 -9 -12 -13 -12 -26 -2 -13 11 -15 10 -12 -6 3 -14 -2 -19
-21 -21 -32 -3 -45 -11 -37 -24 4 -6 -2 -5 -15 1 -17 9 -21 9 -19 -1 2 -7 -3
-12 -9 -10 -7 1 -13 -6 -14 -15 0 -11 -3 -13 -6 -5 -2 6 -9 12 -14 12 -6 0 -7
-5 -4 -10 3 -6 -1 -10 -9 -10 -8 0 -25 -10 -37 -22 -12 -13 -19 -17 -14 -10 6
11 3 11 -13 1 -12 -7 -18 -17 -15 -23 4 -5 -1 -7 -10 -3 -12 4 -17 1 -17 -11
0 -15 -2 -15 -10 -2 -7 11 -10 11 -10 2 0 -7 -4 -10 -10 -7 -6 4 -7 -1 -3 -11
5 -14 3 -16 -12 -11 -15 6 -16 5 -5 -8 7 -9 9 -15 4 -14 -29 5 -46 -2 -40 -17
5 -14 4 -15 -9 -4 -13 11 -14 10 -9 -4 4 -11 2 -16 -7 -14 -8 2 -13 -5 -13
-15 2 -15 -1 -16 -15 -5 -9 7 -13 9 -9 4 10 -12 -10 -46 -27 -46 -8 0 -15 -5
-15 -11 0 -5 5 -7 12 -3 7 5 8 3 4 -5 -5 -7 -15 -10 -23 -6 -14 5 -14 3 -2
-12 12 -15 12 -16 -3 -10 -10 3 -17 3 -17 -1 3 -16 -14 -72 -22 -72 -14 0 -11
-28 4 -34 6 -4 2 -4 -10 -2 -17 3 -21 0 -18 -15 2 -12 -2 -19 -11 -19 -8 0
-13 -4 -10 -9 3 -5 -2 -8 -12 -7 -9 0 -16 -4 -15 -11 2 -7 -6 -10 -17 -8 -12
2 -18 0 -15 -6 4 -5 -1 -12 -10 -15 -9 -4 -14 -13 -10 -22 5 -13 3 -13 -12 -1
-11 9 -14 10 -9 2 4 -7 3 -13 -3 -13 -6 0 -19 -9 -30 -21 -11 -12 -24 -18 -29
-15 -5 3 -16 -2 -23 -12 -13 -16 -13 -16 6 -2 19 14 19 14 6 -3 -10 -13 -17
-15 -27 -6 -11 9 -14 7 -14 -7 0 -16 -2 -17 -10 -4 -7 11 -10 12 -10 2 0 -8
-6 -12 -12 -9 -7 2 -19 -5 -26 -17 -7 -12 -11 -14 -9 -6 3 11 -2 16 -17 15
-32 -2 -57 -16 -49 -28 4 -6 -2 -8 -15 -5 -12 4 -22 2 -22 -3 0 -6 -6 -9 -12
-8 -25 3 -38 -1 -38 -12 0 -8 6 -7 18 2 14 11 15 11 5 -1 -7 -7 -24 -15 -39
-16 -15 -2 -30 -8 -34 -14 -10 -17 -15 -17 -34 -1 -15 12 -16 12 -10 -5 4 -10
4 -16 -1 -12 -4 4 -17 -2 -28 -15 l-19 -22 7 25 7 25 -17 -23 c-9 -13 -23 -21
-31 -18 -8 3 -14 -1 -14 -9 0 -8 -4 -15 -10 -15 -5 0 -10 5 -10 10 0 6 -5 10
-12 10 -6 0 -8 -3 -5 -7 7 -7 -22 -32 -38 -33 -5 0 -3 5 5 10 9 6 10 10 3 10
-7 0 -22 -10 -34 -22 -12 -13 -19 -17 -15 -11 10 18 -25 4 -42 -16 -11 -13
-12 -13 -6 -1 7 13 5 13 -9 1 -14 -11 -20 -11 -32 -1 -13 11 -14 10 -10 -3 4
-8 1 -18 -6 -23 -8 -5 -10 -3 -4 7 7 12 6 12 -7 1 -9 -7 -20 -12 -24 -11 -15
4 -44 -13 -39 -22 3 -4 -4 -6 -15 -4 -11 2 -20 -1 -20 -7 0 -6 -11 -8 -26 -5
-16 3 -28 0 -31 -9 -3 -8 -9 -11 -14 -8 -6 3 -15 1 -22 -4 -7 -5 -20 -8 -29
-7 -9 2 -28 -8 -42 -22 -23 -23 -25 -23 -21 -4 3 18 1 19 -15 9 -10 -7 -16
-16 -14 -20 3 -4 0 -8 -5 -8 -6 0 -11 6 -11 13 0 8 -4 7 -10 -3 -5 -8 -15 -16
-22 -16 -7 -1 -19 -2 -26 -3 -8 -1 -10 -6 -6 -13 5 -9 2 -9 -9 1 -14 11 -17
11 -17 0 0 -11 -2 -11 -10 1 -8 13 -10 12 -10 -3 0 -15 -3 -16 -21 -6 -13 7
-19 7 -15 1 3 -6 2 -13 -4 -17 -5 -3 -10 -1 -10 4 0 6 -5 11 -11 11 -6 0 -8
-7 -5 -16 5 -14 4 -15 -9 -4 -12 10 -15 10 -15 -1 0 -10 -3 -10 -12 -1 -9 9
-17 7 -35 -10 -22 -21 -24 -21 -18 -3 6 18 5 18 -7 4 -17 -20 -52 -34 -42 -16
5 8 2 7 -9 -2 -9 -7 -26 -11 -37 -8 -11 3 -23 0 -27 -5 -3 -6 -1 -8 5 -4 6 3
13 3 16 -2 8 -13 -28 -11 -36 2 -5 7 -8 7 -8 -3 0 -8 -6 -11 -16 -7 -15 6 -15
4 -3 -11 10 -12 11 -15 1 -9 -24 15 -61 14 -55 0 6 -17 -13 -19 -23 -3 -4 7
-18 0 -38 -18 -17 -15 -25 -21 -18 -13 16 19 16 35 -1 21 -8 -6 -18 -7 -22 -3
-5 4 -5 2 -2 -4 4 -7 0 -15 -9 -18 -8 -3 -12 -2 -9 4 4 6 -3 8 -17 6 -13 -3
-29 -5 -35 -5 -7 -1 -13 -9 -14 -18 0 -11 -3 -13 -6 -5 -2 6 -9 12 -15 12 -6
0 -8 -7 -5 -14 4 -10 1 -13 -9 -9 -8 3 -22 -1 -31 -8 -12 -10 -15 -10 -9 -1 4
6 3 12 -2 12 -6 0 -12 -7 -16 -15 -3 -8 -10 -15 -16 -15 -6 0 -8 4 -5 10 3 6
1 10 -4 10 -6 0 -11 -3 -11 -8 0 -4 -9 -13 -20 -19 -17 -11 -19 -10 -14 5 5
16 5 16 -9 0 -15 -19 -33 -25 -22 -8 3 5 -7 5 -25 -1 -16 -6 -28 -15 -25 -19
3 -5 0 -12 -6 -16 -7 -4 -9 -3 -5 4 3 6 2 13 -4 17 -5 3 -10 1 -10 -5 0 -6 -4
-9 -9 -5 -5 3 -13 0 -17 -6 -4 -8 -9 -7 -15 2 -6 10 -9 11 -9 2 0 -7 -7 -13
-15 -13 -8 0 -15 -6 -15 -12 0 -9 -4 -8 -10 2 -9 14 -14 7 -11 -13 1 -5 -4 -5
-11 -1 -18 12 -39 14 -33 4 3 -4 -2 -11 -11 -14 -9 -4 -13 -2 -8 5 4 8 0 7
-15 0 -11 -7 -21 -14 -21 -17 0 -3 5 -2 10 1 6 3 10 1 10 -4 0 -14 -17 -14
-25 -1 -5 8 -11 8 -19 1 -7 -6 -16 -8 -19 -4 -4 3 -7 -2 -8 -13 0 -11 -3 -14
-6 -6 -4 10 -9 9 -19 -5 -13 -17 -14 -17 -8 2 6 20 6 20 -11 0 -9 -11 -20 -21
-25 -21 -6 -1 -13 -3 -17 -4 -5 -1 -12 -2 -17 -1 -5 1 -13 -4 -17 -11 -7 -11
-9 -11 -9 0 0 7 -5 10 -10 7 -6 -4 -8 -10 -6 -14 3 -4 0 -8 -7 -8 -24 -1 -42
-8 -55 -23 -8 -8 -11 -10 -8 -4 3 7 -1 15 -10 18 -8 3 -12 2 -9 -3 9 -16 -16
-25 -27 -10 -7 10 -8 8 -5 -9 3 -12 1 -19 -4 -16 -6 3 -16 0 -24 -6 -8 -7 -15
-9 -15 -5 0 4 -7 2 -15 -5 -9 -7 -18 -10 -22 -6 -3 3 0 6 7 6 7 0 11 3 8 6 -4
3 -17 -2 -31 -11 -14 -8 -29 -15 -33 -14 -20 3 -34 -2 -32 -12 2 -6 -3 -14
-11 -17 -8 -3 -11 0 -7 6 4 6 -6 5 -21 -3 -15 -8 -34 -15 -40 -15 -7 0 -13 -8
-13 -17 0 -15 -2 -16 -10 -3 -8 12 -10 12 -11 -5 l0 -20 -9 20 c-7 17 -9 17
-9 3 -1 -10 -5 -18 -11 -18 -5 0 -10 -8 -11 -17 0 -12 -2 -13 -6 -5 -4 10 -8
10 -19 1 -12 -10 -13 -8 -8 7 5 18 5 18 -6 1 -6 -9 -8 -23 -4 -30 5 -8 2 -7
-9 2 -16 12 -22 8 -18 -13 1 -5 -6 -6 -15 -2 -12 5 -15 2 -10 -10 5 -14 4 -15
-9 -4 -14 12 -20 7 -15 -15 1 -5 -2 -7 -6 -2 -4 4 -18 0 -31 -8 -13 -9 -28
-13 -34 -10 -5 4 -8 1 -7 -7 2 -7 -5 -12 -14 -12 -11 1 -15 -5 -13 -18 4 -16
2 -18 -10 -8 -11 9 -15 10 -15 1 0 -7 -13 -17 -30 -22 -16 -6 -30 -15 -30 -20
0 -5 -12 -14 -26 -19 -14 -6 -22 -15 -18 -21 4 -8 -1 -9 -16 -4 -14 4 -20 3
-16 -3 6 -9 -21 -27 -36 -24 -4 1 -4 -6 -1 -15 4 -11 3 -14 -5 -9 -7 4 -12 2
-12 -4 0 -6 -4 -8 -10 -5 -5 3 -10 -1 -10 -10 0 -10 -5 -13 -12 -9 -8 5 -9 2
-4 -11 5 -14 4 -16 -7 -7 -15 13 -37 -2 -37 -26 0 -7 -4 -10 -10 -7 -5 3 -10
-1 -10 -9 0 -15 -12 -21 -34 -17 -5 1 -6 -6 -2 -15 5 -14 4 -15 -8 -5 -11 9
-14 8 -12 -6 0 -10 -5 -18 -13 -18 -8 0 -16 -6 -19 -14 -3 -9 0 -11 8 -6 9 5
11 4 6 -4 -6 -9 -11 -9 -24 1 -9 8 -13 8 -9 2 4 -7 0 -15 -9 -18 -9 -3 -14
-13 -11 -21 4 -10 1 -12 -10 -8 -10 4 -14 2 -9 -5 3 -6 -3 -13 -14 -17 -11 -4
-18 -10 -15 -15 3 -4 -3 -14 -12 -21 -12 -10 -14 -10 -9 -1 4 6 2 12 -3 12 -6
0 -11 -9 -11 -20 0 -11 -7 -20 -15 -20 -8 0 -15 -5 -15 -11 0 -5 6 -7 13 -3 7
4 9 3 4 -2 -5 -5 -14 -9 -20 -9 -7 0 -12 -7 -13 -15 -2 -30 -4 -32 -17 -21
-10 8 -14 7 -15 -4 -1 -8 -3 -22 -4 -30 -1 -11 -5 -12 -14 -4 -9 8 -16 5 -24
-10 -9 -18 -8 -20 7 -15 12 5 11 1 -5 -10 -12 -10 -20 -22 -17 -27 3 -5 -2 -6
-11 -2 -10 3 -15 2 -12 -3 3 -5 0 -15 -8 -22 -10 -10 -14 -10 -14 -1 0 7 -3
10 -6 7 -3 -4 -1 -16 5 -27 10 -17 9 -20 -4 -15 -10 4 -15 0 -15 -10 0 -9 -5
-16 -11 -16 -5 0 -7 -4 -4 -10 3 -5 -2 -10 -12 -10 -15 0 -16 -2 -3 -10 15 -9
13 -11 -12 -14 -7 -1 -12 -10 -11 -20 1 -14 -4 -17 -20 -12 -20 5 -20 4 -5 -8
10 -7 15 -16 11 -19 -3 -4 -12 -2 -20 5 -11 9 -12 7 -7 -7 6 -14 4 -16 -7 -10
-12 7 -12 6 -1 -7 10 -13 10 -18 1 -24 -8 -4 -9 -3 -5 4 15 24 -2 11 -19 -14
-9 -15 -12 -23 -6 -20 6 4 11 2 11 -5 0 -6 -8 -9 -19 -6 -15 3 -19 0 -16 -14
2 -12 -1 -16 -10 -13 -7 3 -16 0 -21 -7 -4 -7 -3 -10 4 -6 7 5 6 -1 -1 -17 -6
-13 -17 -21 -25 -19 -7 3 -12 0 -10 -8 2 -8 -5 -13 -15 -13 -15 2 -16 -1 -5
-14 7 -9 9 -13 3 -10 -5 3 -21 -6 -35 -20 -14 -14 -17 -20 -7 -12 15 11 17 11
11 -4 -3 -9 -10 -16 -15 -16 -5 0 -9 -7 -9 -16 0 -9 -5 -12 -12 -8 -8 5 -9 2
-4 -11 5 -15 4 -16 -8 -6 -11 10 -17 7 -30 -11 -9 -12 -16 -28 -16 -35 0 -7
-5 -12 -11 -11 -6 2 -14 -3 -17 -11 -3 -9 0 -11 8 -6 9 5 11 4 6 -4 -4 -6 -12
-8 -18 -5 -7 5 -9 0 -6 -13 3 -12 0 -20 -7 -20 -7 0 -11 7 -8 16 4 13 3 13 -5
2 -6 -8 -8 -21 -4 -29 3 -10 1 -13 -6 -8 -8 5 -12 0 -12 -12 0 -11 -6 -22 -14
-25 -8 -3 -20 -16 -26 -28 -10 -17 -9 -20 2 -14 7 4 0 -4 -17 -19 -25 -21 -28
-27 -15 -36 13 -8 12 -10 -5 -10 -17 0 -17 -2 -5 -10 13 -8 8 -14 -11 -12 -3
1 -6 -5 -6 -13 0 -8 5 -11 11 -8 6 3 0 -6 -14 -22 -14 -16 -20 -25 -14 -22 7
4 17 0 24 -8 10 -12 8 -14 -9 -10 -11 2 -24 -1 -27 -7 -4 -6 -2 -8 4 -4 6 3
13 2 17 -4 3 -5 -1 -10 -10 -10 -9 0 -13 -5 -10 -10 3 -6 2 -10 -3 -10 -5 0
-12 -13 -15 -30 -4 -20 -13 -30 -24 -30 -15 0 -16 -2 -3 -10 13 -9 13 -10 0
-11 -8 -1 -19 -1 -23 0 -5 1 -6 -3 -2 -9 3 -6 11 -8 16 -5 18 12 9 -5 -18 -31
-16 -15 -19 -21 -9 -13 18 13 19 13 7 -9 -6 -12 -16 -22 -22 -22 -6 0 -8 -4
-5 -9 11 -17 -5 -40 -22 -33 -15 5 -15 4 1 -12 20 -21 22 -27 5 -21 -19 7 -39
-40 -24 -55 8 -8 6 -9 -8 -4 -16 6 -17 5 -7 -14 9 -18 9 -21 -3 -16 -11 4 -14
0 -11 -15 2 -12 -3 -25 -13 -31 -14 -8 -14 -10 -2 -10 12 0 12 -3 -2 -11 -9
-5 -15 -16 -12 -24 4 -8 -1 -18 -10 -21 -13 -5 -14 -9 -5 -20 9 -11 7 -15 -6
-20 -13 -5 -14 -9 -3 -15 10 -7 9 -9 -5 -9 -15 0 -16 -3 -6 -21 8 -15 8 -19 0
-15 -19 12 -32 -3 -21 -25 8 -15 8 -19 -2 -17 -7 2 -12 -3 -11 -9 2 -7 -2 -13
-8 -13 -8 0 -8 -4 0 -14 9 -11 9 -16 0 -22 -8 -5 -9 -3 -4 6 6 9 4 11 -4 6 -7
-5 -10 -14 -7 -22 3 -8 1 -14 -4 -14 -5 0 -7 -9 -5 -20 2 -11 0 -18 -6 -15 -5
4 -9 -1 -9 -9 0 -9 -6 -16 -12 -16 -9 0 -8 -3 2 -10 12 -7 12 -12 -3 -28 -10
-11 -19 -29 -20 -41 -1 -11 -5 -21 -9 -21 -4 0 -5 -6 -2 -14 3 -7 -2 -20 -10
-28 -11 -12 -12 -18 -3 -27 9 -10 9 -12 -3 -9 -13 3 -16 -2 -19 -38 -1 -9 -6
-12 -13 -8 -8 5 -7 0 2 -11 8 -10 10 -16 4 -12 -7 4 -15 0 -18 -9 -9 -22 -8
-26 5 -19 6 4 5 -2 -2 -13 -7 -12 -18 -18 -24 -15 -5 3 -5 0 2 -7 10 -11 9
-16 -5 -26 -11 -9 -13 -13 -4 -14 7 0 10 -5 7 -10 -4 -6 -11 -7 -17 -4 -5 4
-4 -4 3 -17 12 -23 11 -23 -6 -9 -14 11 -17 11 -11 1 5 -8 3 -17 -5 -22 -12
-7 -12 -9 0 -9 11 0 10 -4 -5 -16 -10 -8 -12 -12 -4 -8 13 7 13 5 2 -8 -10
-13 -10 -17 0 -21 10 -4 10 -6 1 -6 -7 -1 -13 -8 -13 -16 0 -8 -5 -15 -11 -15
-6 0 -9 -10 -8 -22 3 -29 -10 -60 -22 -52 -5 3 -4 -7 1 -21 6 -15 6 -24 1 -20
-12 7 -25 -31 -15 -46 4 -7 3 -9 -3 -6 -11 7 -28 -22 -18 -31 3 -3 5 1 5 8 0
7 3 11 6 7 3 -3 -4 -20 -17 -38 -13 -18 -18 -29 -11 -25 8 5 10 2 6 -8 -3 -9
-10 -16 -15 -16 -6 0 -5 -9 1 -20 6 -11 7 -20 3 -19 -20 3 -27 -2 -13 -11 13
-8 12 -10 -3 -10 -15 0 -16 -3 -6 -21 7 -13 7 -19 1 -15 -6 3 -13 2 -17 -4 -3
-5 -1 -10 6 -10 13 0 3 -14 -12 -16 -5 -1 -12 -2 -15 -3 -4 0 0 -8 7 -18 11
-13 11 -17 1 -21 -10 -3 -10 -7 -1 -18 10 -12 9 -13 -6 -7 -14 5 -17 3 -12
-10 3 -8 1 -18 -6 -21 -9 -3 -9 -5 1 -5 6 -1 12 -6 12 -12 0 -5 -5 -7 -11 -3
-8 5 -10 -1 -7 -20 3 -16 1 -29 -6 -32 -12 -5 -19 -37 -19 -87 0 -16 -3 -24
-7 -17 -5 7 -11 6 -21 -6 -9 -12 -10 -15 -2 -10 7 4 13 3 13 -3 0 -5 -5 -13
-11 -17 -8 -4 -7 -9 2 -15 11 -6 10 -9 -4 -15 -14 -5 -15 -9 -6 -20 9 -11 8
-14 -7 -15 -11 0 -14 -3 -6 -6 6 -2 12 -9 12 -14 0 -6 -4 -7 -10 -4 -5 3 -10
-3 -10 -15 0 -14 4 -19 12 -15 7 4 2 -3 -12 -14 -17 -14 -20 -21 -10 -21 12 0
13 -2 1 -9 -11 -7 -11 -9 0 -14 10 -4 9 -6 -3 -6 -14 -1 -17 -9 -14 -40 2 -30
0 -38 -11 -34 -9 3 -11 0 -7 -10 3 -8 1 -18 -5 -22 -6 -3 -11 -11 -11 -16 0
-6 4 -8 10 -4 5 3 3 -7 -5 -21 -8 -15 -11 -32 -8 -37 4 -6 1 -7 -7 -2 -10 6
-11 2 -6 -19 5 -20 4 -26 -5 -20 -9 5 -10 2 -6 -9 3 -9 1 -18 -6 -20 -9 -3 -8
-9 3 -22 9 -11 10 -16 3 -11 -9 5 -13 0 -13 -14 0 -13 -4 -19 -11 -14 -7 4 -7
-1 1 -16 7 -12 8 -20 2 -16 -5 3 -12 -3 -15 -14 -3 -13 -1 -18 6 -13 7 3 1 -7
-13 -23 -14 -15 -17 -22 -7 -15 15 12 17 12 11 -3 -3 -9 -10 -16 -15 -16 -4 0
-6 -7 -3 -15 4 -9 0 -15 -7 -15 -12 0 -12 -2 -1 -9 12 -7 12 -12 1 -30 -8 -11
-18 -21 -24 -21 -5 0 -4 -4 4 -9 11 -7 12 -13 4 -23 -7 -7 -13 -25 -15 -38 -2
-14 -7 -31 -11 -38 -5 -6 -6 -16 -2 -21 3 -5 1 -12 -5 -16 -6 -4 -7 -11 -4
-17 5 -7 1 -9 -9 -5 -14 5 -15 2 -6 -20 8 -21 7 -24 -4 -15 -11 9 -13 6 -9
-20 3 -19 1 -28 -5 -25 -6 4 -10 -1 -10 -11 0 -34 -3 -43 -13 -37 -13 8 -13
-1 1 -27 6 -11 7 -18 2 -15 -5 3 -14 -3 -21 -13 -10 -17 -9 -18 6 -13 14 5 15
3 4 -8 -6 -7 -12 -24 -12 -37 0 -13 -4 -21 -8 -18 -5 3 -9 -1 -9 -9 0 -8 3
-12 7 -10 3 2 6 -5 6 -15 0 -13 -4 -16 -11 -10 -8 7 -11 3 -11 -13 1 -12 6
-25 11 -29 6 -5 5 -8 -4 -8 -9 0 -11 -8 -7 -27 5 -21 4 -24 -4 -13 -8 12 -10
10 -10 -10 0 -15 -6 -32 -12 -38 -10 -10 -10 -15 0 -21 11 -7 10 -9 -3 -14
-12 -5 -14 -11 -5 -26 8 -16 6 -22 -10 -31 -11 -6 -20 -16 -20 -23 0 -8 4 -7
10 3 5 8 12 12 15 8 4 -3 -4 -16 -17 -28 -13 -13 -18 -20 -12 -17 7 4 15 0 18
-9 3 -8 2 -12 -4 -9 -19 11 -32 -6 -18 -23 8 -10 8 -13 1 -9 -18 11 -22 -17
-4 -31 14 -11 14 -11 -3 -5 -13 4 -17 3 -13 -4 4 -6 0 -19 -9 -27 -9 -10 -11
-16 -4 -16 6 0 10 -6 7 -12 -2 -7 -10 -12 -16 -10 -7 1 -10 -2 -6 -8 3 -5 0
-20 -6 -32 -11 -21 -11 -22 5 -9 14 12 16 12 10 -3 -3 -9 -11 -16 -18 -16 -6
0 -4 -4 4 -10 12 -8 12 -10 -2 -15 -9 -4 -14 -13 -11 -21 3 -9 -2 -14 -13 -15
-18 0 -17 -1 1 -9 17 -7 18 -9 4 -15 -10 -4 -15 -14 -12 -25 3 -10 0 -21 -6
-24 -7 -5 -11 -300 -11 -976 l0 -970 8115 0 8115 0 0 3214 c0 2419 -3 3217
-12 3222 -7 4 -8 3 -4 -4 4 -7 2 -12 -3 -12 -6 0 -11 5 -11 11 0 7 -9 20 -21
30 -11 10 -18 22 -15 27 3 4 -4 16 -14 25 -13 11 -20 12 -24 4 -2 -7 -5 -2 -5
11 -1 12 -7 22 -16 22 -9 0 -12 6 -8 17 4 11 3 14 -5 9 -7 -4 -12 -1 -12 8 0
9 -4 16 -10 16 -5 0 -10 5 -10 11 0 14 -52 65 -62 61 -4 -1 -5 8 -3 19 3 15 0
19 -10 16 -7 -3 -19 2 -27 11 -11 13 -11 15 2 7 8 -4 -2 8 -23 28 -21 20 -43
37 -48 37 -6 0 -7 5 -3 12 5 7 2 9 -8 5 -15 -5 -44 37 -39 57 1 5 -6 3 -15 -5
-12 -9 -15 -9 -10 -1 4 6 2 12 -3 12 -6 0 -10 6 -9 13 2 6 -4 11 -13 9 -9 -1
-19 5 -23 13 -3 9 -11 13 -17 9 -7 -4 -10 -3 -7 2 6 11 -28 45 -36 37 -3 -4
-6 1 -6 10 0 11 -5 14 -17 10 -12 -5 -14 -3 -8 7 6 10 3 12 -13 8 -15 -4 -19
-2 -15 8 3 8 0 14 -7 14 -6 0 -8 5 -4 13 5 7 0 6 -11 -3 -10 -8 -16 -10 -13
-5 7 12 -17 37 -26 28 -3 -4 -6 1 -6 9 0 9 -8 22 -17 29 -17 13 -17 13 -3 -6
15 -19 15 -19 -11 0 -15 11 -25 23 -22 28 2 4 -3 7 -11 7 -9 0 -16 5 -16 11 0
5 -4 7 -10 4 -5 -3 -10 1 -10 9 0 9 -5 16 -12 16 -6 0 -26 18 -45 40 -19 22
-40 39 -46 37 -7 -1 -11 4 -9 11 1 6 -6 12 -16 12 -10 0 -25 9 -35 20 -9 11
-24 20 -32 20 -9 0 -13 5 -10 10 4 6 3 10 -2 9 -21 -4 -33 2 -33 17 0 9 -6 14
-12 11 -7 -2 -18 5 -25 17 -7 13 -12 15 -13 7 0 -9 -7 -6 -20 9 -11 13 -20 20
-20 16 0 -4 -10 3 -22 16 -13 13 -30 24 -38 26 -8 2 -19 9 -25 16 -5 7 -18 15
-28 19 -11 4 -15 12 -11 19 5 8 0 7 -11 -2 -15 -12 -17 -12 -10 -1 6 11 4 13
-8 8 -9 -3 -18 1 -21 10 -4 8 -12 13 -20 10 -7 -3 -19 3 -26 13 -7 10 -22 17
-32 15 -10 -2 -17 -1 -14 3 2 4 -2 13 -10 20 -11 10 -14 10 -14 0 0 -10 -2
-10 -9 0 -5 8 -20 15 -34 15 -14 1 -23 4 -21 6 7 8 -36 32 -46 26 -6 -3 -10 1
-10 10 0 11 -7 15 -22 13 -14 -2 -22 2 -21 9 2 7 -6 10 -16 8 -11 -2 -22 3
-25 12 -3 8 -12 13 -19 10 -6 -2 -18 3 -25 12 -8 9 -10 10 -7 3 6 -11 3 -11
-13 -1 -12 7 -19 16 -17 19 2 4 -9 6 -25 5 -17 -1 -30 2 -30 8 0 5 -7 6 -16 3
-13 -5 -14 -4 -6 7 9 11 7 13 -11 12 -12 -1 -28 5 -36 12 -7 8 -20 12 -27 9
-8 -3 -14 -1 -14 4 0 6 -7 10 -15 10 -8 0 -15 6 -15 13 0 9 -3 8 -9 -2 -5 -7
-10 -9 -12 -5 -6 13 -64 44 -82 44 -8 0 -27 10 -43 22 -19 15 -24 16 -15 5 12
-15 12 -17 -3 -11 -9 3 -16 10 -16 14 0 12 -37 19 -48 8 -6 -6 -12 -5 -17 3
-6 8 -4 10 5 4 9 -6 11 -4 5 4 -4 7 -16 11 -26 8 -11 -3 -25 0 -32 6 -6 7 -29
12 -49 12 -21 -1 -38 2 -38 6 0 4 -7 9 -14 12 -11 4 -13 1 -9 -11 6 -15 4 -15
-9 -4 -9 7 -30 14 -47 14 -17 1 -31 4 -31 8 0 4 -20 6 -44 6 -24 -1 -42 2 -40
6 3 4 -9 6 -25 4 -17 -2 -31 0 -31 5 0 5 -7 6 -15 3 -8 -4 -15 -1 -15 5 0 6
-6 8 -14 5 -8 -3 -17 0 -21 6 -5 8 -11 7 -23 -2 -13 -11 -14 -11 -7 1 6 11 3
13 -13 9 -12 -4 -22 -2 -22 3 0 4 -7 5 -17 2 -12 -5 -14 -3 -8 7 6 10 4 12 -7
7 -9 -3 -26 2 -39 10 -12 9 -19 11 -15 5 4 -7 2 -12 -3 -12 -6 0 -11 5 -11 11
0 7 -10 9 -25 7 -16 -4 -29 0 -34 10 -6 10 -10 11 -15 3 -5 -8 -14 -6 -30 4
-13 9 -30 14 -37 13 -8 -2 -13 2 -12 8 1 6 -5 11 -13 11 -7 0 -14 -5 -14 -10
0 -5 -6 -4 -13 2 -8 6 -17 8 -20 4 -4 -3 -7 -1 -7 5 0 7 -5 12 -11 12 -5 0 -7
-6 -3 -12 6 -10 4 -10 -7 0 -7 6 -23 12 -35 12 -13 0 -26 5 -29 10 -3 6 -11
10 -16 10 -6 0 -7 -5 -4 -11 4 -6 -2 -5 -14 3 -12 7 -21 17 -21 22 0 4 -6 3
-13 -3 -10 -8 -19 -6 -35 9 -11 11 -22 15 -24 10 -2 -6 -14 -4 -30 4 -24 13
-26 12 -21 -2 4 -10 -2 -7 -16 7 -14 14 -30 21 -42 18 -10 -3 -19 -1 -19 3 0
5 -9 7 -20 5 -11 -2 -20 0 -20 6 0 5 -12 9 -26 9 -17 0 -23 4 -18 13 5 8 2 8
-9 -2 -11 -9 -17 -10 -17 -2 0 6 -9 11 -20 11 -11 0 -20 5 -20 10 0 7 -7 7
-21 -1 -19 -10 -20 -9 -14 13 3 12 3 18 -2 12 -10 -13 -54 -13 -46 0 4 5 -1 7
-10 3 -9 -3 -23 1 -32 9 -9 9 -22 13 -30 10 -8 -3 -15 0 -15 6 0 6 -3 9 -6 5
-4 -3 -13 1 -22 9 -12 13 -16 13 -23 2 -7 -11 -9 -11 -9 0 0 7 -4 10 -10 7 -6
-3 -10 -1 -10 5 0 6 -4 8 -10 5 -5 -3 -10 -2 -10 4 0 6 -7 7 -17 4 -12 -5 -14
-3 -8 7 6 10 4 12 -7 7 -9 -3 -24 1 -35 8 -10 8 -30 15 -45 15 -14 0 -28 5
-30 10 -2 6 -17 11 -35 13 -17 1 -29 5 -26 10 2 4 -5 7 -16 7 -12 0 -21 5 -21
10 0 6 -9 10 -20 10 -11 0 -20 6 -20 13 0 8 -4 7 -10 -3 -6 -10 -10 -11 -10
-2 0 6 -9 12 -21 12 -11 0 -17 5 -14 10 4 6 -5 10 -20 10 -18 0 -24 4 -19 13
5 7 1 7 -12 -3 -10 -8 -16 -11 -12 -6 10 11 -14 35 -29 29 -7 -3 -13 0 -13 7
0 6 -4 8 -10 5 -5 -3 -10 0 -10 7 0 9 -3 9 -10 -2 -7 -11 -10 -11 -10 -2 0 7
-4 10 -10 7 -6 -4 -7 1 -3 11 5 14 3 15 -17 4 -12 -7 -20 -8 -17 -3 3 5 -3 14
-13 21 -17 10 -18 9 -14 -6 4 -9 -3 -4 -14 11 -11 17 -21 24 -24 17 -2 -8 -14
-4 -33 12 -17 14 -38 24 -47 22 -10 -1 -18 2 -18 7 0 5 -9 9 -21 9 -13 0 -18
4 -13 13 5 7 0 6 -11 -3 -11 -9 -16 -10 -11 -2 6 11 -5 17 -26 13 -5 0 -8 4
-8 10 0 6 -6 9 -14 6 -7 -3 -21 4 -30 14 -9 11 -21 17 -26 14 -6 -3 -10 -1
-10 5 0 6 -4 8 -10 5 -5 -3 -10 -1 -10 5 0 6 -4 8 -10 5 -5 -3 -10 -1 -10 5 0
6 -4 9 -9 5 -5 -3 -16 2 -24 10 -9 8 -20 15 -26 15 -6 0 -11 5 -11 10 0 6 -7
10 -15 10 -8 0 -15 5 -15 10 0 6 -7 10 -16 10 -8 0 -13 4 -10 8 3 5 -6 15 -20
22 -14 8 -22 20 -19 27 2 8 0 11 -5 8 -6 -3 -10 -1 -10 4 0 6 -10 11 -22 12
-22 0 -22 1 -3 9 18 8 18 9 2 9 -10 1 -28 12 -41 26 -13 13 -26 22 -29 18 -4
-3 -7 1 -7 9 0 12 -6 15 -22 10 -19 -5 -21 -3 -11 9 12 15 6 18 -49 22 -14 1
-15 4 -5 16 9 11 9 13 0 8 -6 -4 -14 -3 -18 2 -3 6 -13 7 -22 4 -11 -4 -14 -3
-9 5 5 8 0 12 -14 12 -14 0 -19 4 -14 13 5 7 0 6 -11 -3 -11 -9 -16 -10 -11
-2 4 6 2 13 -3 13 -6 1 -17 2 -23 3 -7 1 -12 7 -11 13 2 7 -6 10 -17 8 -11 -2
-20 0 -20 6 0 5 -7 9 -16 9 -9 0 -12 5 -8 13 5 8 2 8 -9 -2 -11 -9 -17 -10
-17 -2 0 6 -7 11 -15 11 -9 0 -26 7 -39 15 -13 9 -34 18 -47 20 -12 3 -26 10
-31 17 -4 7 -8 9 -8 4 0 -5 -8 -2 -18 7 -10 10 -22 14 -27 10 -4 -5 -5 -3 -1
4 3 6 -8 26 -26 44 -18 18 -24 26 -13 18 18 -13 19 -13 6 4 -7 9 -21 17 -30
17 -14 0 -14 2 -1 10 12 8 10 10 -8 10 -13 0 -20 4 -17 10 3 6 2 10 -4 10 -5
0 -12 9 -16 20 -3 11 -12 19 -18 17 -7 -1 -11 4 -9 12 2 9 -3 11 -13 7 -9 -3
-13 -2 -10 4 3 6 -1 13 -9 16 -9 3 -16 13 -16 21 0 8 -4 11 -10 8 -5 -3 -10
-1 -10 4 0 6 -7 11 -16 11 -8 0 -13 4 -10 9 3 5 -10 16 -30 26 -19 9 -38 23
-41 32 -5 12 -7 12 -14 1 -6 -10 -9 -8 -9 7 0 17 -2 17 -10 5 -6 -10 -10 -11
-10 -2 0 6 -3 11 -7 10 -5 -1 -19 4 -33 12 -22 12 -24 11 -13 -2 10 -12 10
-15 -2 -15 -8 0 -12 4 -9 8 2 4 -6 18 -18 30 -13 12 -16 18 -8 14 13 -8 13 -7
1 8 -11 14 -11 17 0 17 11 0 11 2 -1 10 -8 5 -10 10 -5 10 6 0 3 5 -5 10 -12
8 -12 10 5 10 11 0 16 3 10 8 -16 10 -17 54 -2 45 7 -4 6 1 -2 11 -17 21 -22
56 -8 56 6 0 6 5 0 13 -5 6 -9 29 -8 50 0 20 -4 37 -9 37 -4 0 -3 7 5 16 10
13 10 17 0 23 -10 7 -10 13 -2 29 14 26 14 42 0 22 -8 -11 -9 -8 -4 13 3 16 2
26 -2 24 -9 -6 -8 75 1 98 3 8 0 15 -7 15 -8 0 -6 4 3 10 13 9 13 10 0 10 -12
0 -13 2 -1 9 11 7 11 9 0 14 -10 4 -10 6 -1 6 6 1 12 6 12 12 0 6 -6 7 -12 2
-7 -4 -5 6 6 21 15 23 16 30 5 37 -10 6 -11 11 -3 17 6 4 10 19 8 35 -1 16 2
27 9 27 8 0 8 3 -1 9 -11 7 -10 9 3 15 9 3 13 10 10 16 -4 6 -12 7 -18 3 -7
-3 -4 2 5 13 14 16 15 23 6 32 -9 9 -8 12 7 12 17 0 18 2 5 10 -12 8 -12 10
-1 10 11 0 11 3 1 15 -7 9 -10 18 -6 22 3 3 6 0 7 -8 0 -8 4 -5 8 6 5 11 5 25
0 31 -6 7 -3 16 6 24 11 9 12 16 5 25 -8 9 -6 17 5 29 9 9 12 16 6 16 -6 0
-11 7 -11 16 0 8 5 12 10 9 6 -3 10 -1 10 4 0 6 -4 11 -8 11 -5 0 -9 7 -9 15
0 11 3 12 14 3 11 -9 12 -6 4 16 -9 21 -8 26 4 26 8 0 15 5 15 11 0 5 -4 7
-10 4 -5 -3 -10 1 -10 10 0 9 3 14 8 12 4 -3 8 6 8 19 1 13 -3 24 -10 24 -6 0
-4 4 4 10 8 5 11 12 8 16 -4 3 0 13 8 21 12 12 12 18 2 31 -11 13 -11 14 0 8
9 -6 11 -1 8 18 -3 18 -1 23 10 19 8 -3 14 0 14 6 0 6 -5 11 -11 11 -5 0 -8 4
-5 9 4 5 0 12 -6 14 -8 4 -7 6 4 6 9 1 20 5 23 11 3 5 0 7 -9 4 -11 -4 -13 0
-9 15 3 12 10 21 15 21 6 0 6 6 -1 14 -9 11 -9 16 0 22 8 5 9 3 4 -6 -5 -9 -4
-11 4 -6 9 6 9 11 -1 24 -11 13 -11 15 3 10 9 -4 16 -1 16 8 0 7 -3 11 -7 9
-4 -2 -7 9 -6 24 1 16 4 27 8 25 4 -2 9 0 13 6 3 5 1 10 -6 10 -7 0 -4 7 7 15
13 10 14 13 3 10 -9 -4 -16 0 -16 9 0 8 6 12 12 10 6 -3 12 2 12 10 0 8 -4 13
-9 10 -4 -3 -8 0 -8 5 0 6 7 11 16 11 8 0 12 5 9 10 -4 6 -12 8 -18 4 -7 -3
-4 1 6 9 20 16 23 32 5 21 -10 -6 -10 -5 -1 7 8 10 9 19 3 27 -6 7 -7 10 -4 7
8 -6 36 46 29 53 -3 3 -5 -1 -5 -8 0 -7 -2 -11 -5 -8 -3 3 1 17 8 31 8 15 16
25 19 22 2 -3 5 2 5 10 0 8 -4 12 -8 10 -4 -3 -5 4 -2 16 3 11 12 23 19 26 7
2 10 11 7 19 -3 8 1 14 8 14 11 0 11 3 -1 10 -11 7 -11 10 -2 10 7 0 10 5 7
10 -3 6 -1 10 5 10 7 0 9 7 6 17 -4 10 -4 14 0 10 10 -9 44 22 44 40 0 8 4 12
9 9 5 -3 12 1 15 10 4 9 13 14 21 10 8 -3 15 0 15 6 0 6 3 8 7 5 3 -4 12 1 20
11 8 9 11 11 8 4 -6 -11 -3 -11 14 0 12 7 21 17 21 23 0 5 5 3 10 -5 7 -12 10
-11 17 5 4 11 15 20 23 20 8 0 14 5 13 12 -2 8 4 10 14 6 10 -4 14 -2 10 4 -4
6 3 9 18 8 17 -2 22 1 18 11 -3 8 -1 14 5 12 6 -2 18 6 27 17 9 11 14 13 10 5
-4 -8 4 -3 17 11 13 14 30 24 38 21 13 -3 13 -2 1 6 -7 5 -10 15 -6 22 6 9 9
9 16 -1 7 -11 9 -10 9 4 0 11 4 15 12 11 8 -5 9 -2 5 10 -4 9 -3 14 2 11 5 -3
12 3 15 13 7 19 56 71 56 58 0 -4 6 -1 14 6 10 9 11 17 4 26 -8 9 -7 11 7 6
12 -5 16 -4 12 3 -4 6 4 25 19 42 14 17 23 35 20 40 -4 5 -1 13 5 17 8 5 9 3
4 -7 -4 -8 1 -5 12 6 11 11 16 21 12 23 -5 2 0 13 11 25 11 11 20 26 20 33 0
6 7 15 16 18 13 5 14 9 5 20 -9 11 -5 20 19 45 21 21 26 29 13 25 -13 -4 -12
-1 6 14 18 15 21 21 10 25 -11 4 -10 6 2 6 11 1 15 9 14 26 -2 17 5 31 23 46
15 11 22 18 17 15 -6 -2 -11 4 -11 14 0 10 3 18 6 18 21 -2 29 6 35 32 4 17
11 28 16 24 5 -3 9 0 9 5 0 6 -6 11 -12 11 -7 0 -2 10 12 21 14 11 18 18 10
14 -12 -5 -12 -4 1 7 9 7 14 24 12 38 -2 19 -1 22 7 10 9 -13 14 -7 11 13 0 4
4 7 10 7 6 0 9 6 6 13 -3 7 3 18 13 25 12 7 16 19 12 38 -3 18 -1 25 6 20 7
-4 10 1 7 14 -2 11 1 20 7 20 5 0 7 7 4 16 -4 9 -1 23 5 30 9 11 8 14 -2 14
-11 0 -11 2 1 10 10 6 11 10 3 10 -7 0 -13 5 -13 11 0 5 3 8 8 6 4 -3 8 6 8
19 1 13 -1 22 -5 20 -4 -3 -7 4 -7 14 0 10 4 16 8 14 4 -3 8 -1 8 5 0 5 -5 11
-11 13 -9 3 -9 10 1 27 6 13 8 21 2 17 -5 -3 -12 1 -16 9 -3 8 0 15 6 15 6 0
3 10 -8 22 -10 12 -13 18 -6 14 7 -4 12 -1 12 9 0 9 -4 14 -9 10 -6 -3 -9 3
-9 12 1 10 -2 29 -6 42 -6 18 -5 22 5 17 8 -4 7 -1 -3 6 -12 11 -14 18 -6 33
9 15 8 17 -5 12 -11 -4 -14 -2 -11 8 3 7 0 24 -7 37 -12 22 -11 22 7 8 19 -14
19 -14 0 7 -10 12 -16 29 -12 38 3 9 2 13 -4 10 -5 -3 -8 9 -6 29 1 20 -2 34
-8 33 -6 -1 -10 8 -8 21 2 12 0 22 -5 22 -4 0 -14 10 -22 21 -11 19 -11 21 3
16 10 -4 13 -1 9 8 -3 8 -10 12 -16 8 -6 -4 -8 2 -5 15 4 13 2 20 -3 16 -5 -3
-14 8 -20 24 -6 17 -17 33 -25 36 -8 3 -14 13 -14 22 0 12 -6 15 -21 11 -15
-4 -18 -2 -10 7 7 8 5 12 -10 13 -10 1 -32 11 -48 22 -21 15 -31 17 -39 9 -9
-9 -12 -9 -12 1 0 10 -9 12 -30 8 -16 -4 -30 -3 -31 1 -3 20 -5 92 -2 92 1 0
8 -11 15 -25 l13 -25 14 23 c13 20 13 21 -2 8 -15 -11 -17 -11 -17 2 0 9 4 18
10 22 6 4 6 15 -1 32 -5 15 -8 32 -5 40 6 14 -9 19 -17 6 -2 -5 -2 -2 0 5 1 7
-2 23 -8 35 -9 19 -7 19 11 -3 18 -21 20 -21 11 -4 -6 12 -7 24 -4 28 3 3 0 6
-8 6 -10 0 -14 9 -13 28 1 15 6 26 12 25 6 -2 9 4 6 12 -4 8 -10 15 -14 15 -4
0 -5 11 -2 25 2 14 8 22 12 20 5 -3 12 0 16 6 4 8 3 9 -4 5 -6 -3 -16 2 -22
13 -7 14 -7 22 2 27 6 4 8 3 4 -4 -3 -6 -3 -13 2 -16 4 -2 9 4 9 15 1 10 -4
19 -10 19 -8 0 -8 3 -2 8 12 8 16 44 5 37 -11 -7 -6 22 5 32 4 4 5 3 2 -3 -3
-6 0 -11 8 -11 9 0 11 5 6 11 -17 23 -20 56 -3 56 8 0 12 3 9 7 -4 3 1 16 10
27 15 18 14 17 -8 -2 l-26 -23 4 42 c3 25 0 39 -6 35 -11 -7 -9 13 3 33 6 10
5 12 -2 7 -13 -8 -13 -10 -16 62 -2 35 1 52 9 52 17 0 36 -25 27 -35 -4 -5 -1
-5 6 -1 9 6 10 12 3 20 -7 9 -7 17 2 26 10 12 9 12 -3 3 -13 -10 -18 -8 -29 9
-7 11 -8 17 -2 13 7 -3 11 2 11 14 0 12 -6 21 -12 22 -7 0 -3 4 9 9 16 7 21
14 16 26 -4 11 -3 15 5 10 6 -3 14 -1 18 5 4 7 3 9 -4 5 -6 -3 -13 -2 -17 4
-3 5 -1 10 6 10 7 0 9 3 6 6 -4 4 -13 2 -21 -5 -11 -9 -17 -8 -30 4 -22 23
-20 32 3 11 17 -16 19 -16 24 4 5 19 -8 26 -37 21 -5 -1 -3 5 4 14 18 22 21
45 6 39 -9 -3 -12 6 -10 30 2 21 -3 41 -12 50 -12 13 -12 15 5 13 11 0 18 -4
16 -8 -3 -3 5 -15 18 -25 13 -12 17 -13 9 -3 -6 9 -10 18 -8 20 3 2 -4 15 -16
29 -11 14 -16 19 -12 11 4 -9 3 -12 -4 -8 -5 4 -8 16 -5 27 3 11 -2 27 -11 36
-15 15 -15 18 -1 40 19 29 19 40 1 25 -12 -10 -14 -8 -9 11 3 17 2 19 -5 9 -8
-11 -10 -8 -9 12 2 19 5 23 15 15 8 -7 12 -7 12 1 0 7 5 9 10 6 6 -4 7 -11 4
-17 -4 -6 -2 -8 4 -5 9 6 9 15 3 46 -1 2 -8 -2 -16 -9 -10 -8 -15 -9 -15 -2 0
6 8 16 18 22 16 11 16 11 0 6 -10 -3 -18 -1 -18 5 0 6 -5 7 -10 4 -6 -4 -9 -1
-8 7 2 7 -3 12 -10 10 -8 -1 -11 2 -7 8 4 7 12 7 25 0 14 -7 18 -6 16 5 -1 8
-6 18 -11 22 -4 4 -5 2 0 -6 6 -10 4 -12 -4 -7 -9 6 -8 13 6 28 18 20 18 21
-4 9 -13 -6 -24 -7 -28 -2 -3 5 5 11 17 13 13 2 23 9 23 16 0 8 8 20 18 27 12
9 15 15 7 20 -6 4 -9 14 -6 22 3 8 1 11 -4 8 -6 -3 -10 -2 -10 4 0 5 6 12 13
15 6 3 1 4 -12 3 -16 -1 -25 4 -26 15 -2 9 -13 27 -24 39 l-21 23 22 13 23 12
-22 1 c-16 0 -21 6 -20 20 1 11 6 18 12 16 5 -2 9 -9 7 -15 -1 -7 2 -10 8 -6
8 5 8 11 0 20 -7 8 -7 16 -2 19 6 3 12 -1 16 -9 3 -8 10 -15 16 -15 14 0 -20
35 -34 35 -6 1 -10 7 -8 14 1 7 -2 10 -8 6 -5 -3 -10 -1 -10 4 0 6 -5 11 -11
11 -8 0 -8 -5 1 -15 8 -10 9 -15 2 -15 -13 0 -36 37 -38 60 -2 25 -16 50 -24
45 -10 -6 -8 15 3 33 8 11 2 16 -15 13 -4 0 -5 6 -1 15 6 17 29 12 25 -6 -2
-8 3 -10 14 -6 12 4 15 2 10 -9 -3 -8 -1 -15 4 -15 6 0 10 6 10 14 0 8 6 17
13 20 8 4 7 5 -3 5 -32 -2 -39 1 -33 18 5 13 2 15 -11 10 -30 -12 -39 4 -11
19 33 17 38 17 29 2 -4 -7 -3 -8 4 -4 8 5 9 13 2 25 -5 10 -7 21 -5 25 3 3 2
4 -1 1 -12 -8 -45 16 -38 27 4 7 2 8 -5 4 -9 -6 -9 -11 0 -22 10 -12 9 -13 -5
-8 -11 4 -14 13 -10 30 5 20 3 23 -12 18 -18 -5 -18 -5 -1 6 17 11 15 30 -4
30 -6 0 -7 -4 -4 -10 4 -6 -1 -7 -11 -3 -14 5 -14 7 5 18 12 6 19 14 15 18 -4
4 -14 1 -23 -6 -14 -11 -14 -10 -2 6 12 16 9 22 -12 18 -5 -1 -5 4 -2 10 5 8
10 8 18 0 6 -6 16 -11 22 -11 5 1 -1 10 -14 21 -19 15 -26 17 -32 7 -7 -10 -9
-10 -10 2 -1 8 -1 18 0 23 0 4 -5 7 -11 8 -7 0 1 7 17 14 23 10 33 10 44 2 12
-10 13 -9 6 2 -5 9 -2 19 10 28 11 7 14 13 8 13 -7 0 -14 -4 -17 -9 -6 -10
-56 -12 -56 -2 0 4 10 7 21 8 12 1 27 7 32 12 7 7 0 9 -21 6 -18 -2 -32 1 -32
6 0 6 -6 7 -12 3 -9 -5 -8 -2 1 10 11 13 11 20 3 28 -13 13 -16 32 -4 24 4 -2
14 0 22 6 12 8 12 9 -2 4 -12 -4 -18 0 -19 12 0 13 -3 11 -9 -5 -10 -25 -37
-22 -37 4 0 13 2 13 14 -3 10 -14 13 -14 13 -3 0 8 -5 20 -12 27 -9 9 -9 12 0
12 7 0 12 4 12 10 0 5 -8 6 -17 3 -16 -6 -16 -5 -4 11 12 15 12 17 0 14 -8 -2
-13 3 -11 10 1 6 -3 12 -9 12 -5 0 -7 5 -4 10 3 6 -2 10 -12 11 -10 0 -13 3
-6 6 10 3 10 7 0 18 -7 7 -15 11 -18 9 -4 -2 -10 3 -13 12 -5 12 -2 15 10 10
14 -5 15 -4 4 9 -7 8 -17 12 -24 8 -6 -4 -4 2 4 12 8 10 10 16 5 13 -6 -4 -17
-3 -25 3 -13 7 -12 9 1 9 9 0 23 8 30 18 11 14 11 15 -1 5 -17 -16 -40 -17
-40 -2 0 5 4 8 8 5 5 -3 9 1 9 9 0 8 -4 12 -9 9 -4 -3 -8 2 -8 10 0 9 -5 16
-11 16 -5 0 -7 -4 -4 -10 3 -5 0 -10 -7 -11 -7 0 -4 -4 7 -9 15 -6 16 -9 4 -9
-24 -1 -29 8 -19 35 10 25 -3 35 -14 12 -3 -7 -3 -3 0 10 7 28 -19 52 -48 44
-10 -2 -18 1 -18 7 0 7 4 9 10 6 6 -3 7 1 4 9 -3 9 -10 13 -15 10 -5 -3 -9 2
-9 11 0 9 4 14 8 11 5 -3 9 1 9 9 0 11 -4 12 -14 3 -7 -6 -17 -8 -20 -4 -4 4
-2 11 6 15 10 6 9 10 -4 15 -23 9 -33 7 -17 -3 10 -6 9 -11 -4 -22 -13 -10
-16 -10 -10 -1 4 7 2 20 -6 29 -9 12 -9 15 0 9 7 -4 12 -2 12 4 0 6 6 8 13 4
6 -3 0 5 -15 20 -15 14 -31 26 -35 26 -4 -1 3 -10 16 -20 13 -11 19 -20 14
-20 -5 0 -20 12 -34 27 -13 14 -18 23 -11 19 6 -4 12 -2 12 4 0 6 5 8 12 4 7
-4 8 -3 4 4 -4 6 -13 9 -20 6 -7 -3 -16 2 -20 11 -4 11 -2 14 7 9 6 -3 -1 5
-18 19 -16 14 -27 29 -22 33 4 4 7 2 7 -5 0 -7 5 -9 12 -5 7 4 8 3 4 -4 -4 -7
-3 -12 2 -12 6 0 12 7 16 15 3 8 0 14 -7 12 -7 -1 -12 9 -13 24 -1 23 -47 82
-57 73 -2 -2 -4 3 -4 13 0 12 6 9 22 -11 17 -22 24 -25 30 -15 5 8 5 11 0 7
-11 -10 -38 29 -30 42 4 6 1 9 -7 8 -7 -2 -17 -10 -23 -19 -9 -16 -11 -16 -25
-1 -13 14 -12 15 2 9 13 -4 16 -1 13 15 -3 11 -7 23 -11 27 -4 3 -4 -2 -1 -11
4 -10 2 -18 -2 -18 -5 0 -11 5 -13 11 -3 9 -22 16 -52 18 -4 1 -5 9 -2 18 4
10 4 14 0 11 -11 -12 -46 12 -40 28 3 8 -1 14 -10 14 -8 0 -12 5 -9 10 3 6 1
10 -5 10 -7 0 -9 7 -6 16 4 10 2 13 -6 8 -7 -5 -9 -2 -5 8 4 12 1 14 -14 11
-15 -4 -22 0 -26 16 -3 11 -10 21 -15 21 -15 0 -38 27 -30 35 4 5 2 5 -4 2 -6
-4 -23 4 -38 16 -21 19 -24 25 -14 37 11 12 10 12 -5 1 -17 -13 -17 -15 0 -34
18 -20 18 -20 -10 -2 -17 11 -26 24 -23 32 4 8 1 11 -5 8 -6 -4 -8 -13 -5 -21
7 -18 -13 -29 -27 -15 -9 9 -7 10 8 5 l20 -7 -20 20 c-12 12 -31 19 -47 18
-19 -2 -25 2 -21 11 3 9 -2 14 -13 14 -16 0 -16 2 -4 9 8 6 17 8 21 5 5 -2 6
5 4 16 -2 11 2 20 8 20 8 0 7 3 -2 9 -8 5 -21 7 -30 4 -10 -3 -12 -1 -6 4 6 4
11 14 13 22 3 12 0 12 -13 1 -13 -11 -15 -10 -9 3 9 24 -4 41 -21 27 -10 -8
-15 -8 -21 1 -5 8 -3 9 6 4 9 -5 11 -4 6 3 -4 7 -17 12 -30 12 -13 0 -31 9
-41 20 -17 19 -19 19 -37 4 -17 -16 -23 -11 -20 17 1 4 -8 4 -20 1 -17 -4 -20
-2 -15 11 3 9 1 19 -5 23 -7 4 -8 3 -4 -4 13 -21 -29 -13 -44 8 -8 11 -20 20
-28 20 -7 0 -10 5 -7 10 3 6 -1 10 -10 10 -9 0 -13 5 -10 10 3 6 -1 10 -9 10
-9 0 -16 8 -16 17 0 15 -2 14 -16 -3 -8 -10 -13 -14 -10 -7 8 15 -23 46 -40
39 -7 -3 -16 4 -19 15 -4 11 -11 16 -17 13 -7 -5 -9 -2 -6 8 4 8 0 15 -8 15
-7 0 -11 -4 -8 -9 3 -4 1 -8 -5 -8 -5 0 -12 6 -14 13 -4 9 -6 9 -6 -1 -1 -7
-6 -10 -11 -7 -8 5 -7 11 1 21 8 10 8 14 0 14 -6 0 -11 -5 -11 -11 0 -5 -5 -7
-12 -3 -6 4 -8 3 -4 -4 3 -6 1 -14 -5 -18 -8 -4 -9 -3 -5 4 4 7 2 12 -4 12 -6
0 -8 5 -4 12 5 7 2 9 -9 5 -8 -3 -25 3 -37 13 -15 13 -33 17 -60 15 -34 -4
-40 -1 -49 23 -7 19 -10 22 -10 8 -1 -12 -6 -16 -17 -12 -8 3 -12 2 -9 -4 3
-6 1 -10 -4 -10 -6 0 -11 4 -11 9 0 5 -10 7 -22 4 -19 -4 -20 -3 -8 6 13 9 12
11 -4 11 -12 0 -16 5 -12 15 8 22 -2 18 -15 -6 -9 -17 -8 -20 2 -14 8 5 10 4
5 -4 -10 -15 -26 -4 -26 17 0 15 -2 15 -10 2 -8 -12 -10 -10 -11 10 0 17 -3
20 -7 10 -8 -17 -32 -25 -32 -11 0 5 6 11 13 14 6 2 -1 4 -18 3 -16 -1 -36 -5
-44 -10 -9 -6 -12 -5 -8 0 3 5 -8 17 -24 27 -17 9 -27 12 -24 6 4 -6 -7 -8
-29 -6 -20 2 -33 0 -30 -5 3 -5 12 -7 18 -5 7 3 13 -1 13 -8 0 -10 -5 -11 -18
-4 -24 12 -32 11 -23 -3 4 -7 3 -8 -4 -4 -6 4 -9 12 -6 20 3 7 -2 13 -10 13
-8 0 -13 -4 -10 -9 3 -4 0 -8 -5 -8 -6 0 -11 5 -11 10 0 7 -7 7 -21 -1 -17 -9
-20 -8 -14 1 6 10 1 12 -19 8 -14 -3 -26 -1 -26 4 0 5 -4 6 -10 3 -5 -3 -10
-1 -10 5 0 6 -4 8 -10 5 -5 -3 -10 2 -10 12 -1 17 -1 17 -11 0 -8 -14 -14 -16
-25 -6 -8 6 -14 8 -14 3 0 -5 -4 -3 -9 5 -7 11 -13 12 -23 3 -11 -9 -14 -6
-15 11 -2 17 0 19 7 7 5 -8 10 -10 10 -4 0 7 -12 19 -26 29 -15 9 -23 12 -20
6 4 -6 1 -11 -8 -11 -8 0 -18 5 -22 12 -5 7 -3 8 6 3 9 -5 11 -4 6 4 -6 9 -11
9 -24 -1 -12 -10 -14 -10 -8 0 4 7 1 12 -9 12 -9 0 -13 5 -10 10 6 9 -8 14
-27 11 -5 0 -8 4 -8 9 0 6 -7 10 -16 10 -8 0 -13 4 -10 9 3 4 -6 7 -20 5 -19
-2 -23 1 -15 10 7 8 4 12 -10 13 -12 1 -17 -2 -12 -10 3 -7 -2 -5 -13 4 -19
16 -54 15 -54 -2 0 -5 -5 -9 -11 -9 -5 0 -8 4 -4 9 3 5 0 13 -6 17 -7 4 -9 3
-6 -3 4 -6 -3 -13 -16 -17 -31 -8 -37 -7 -37 5 0 5 5 7 12 3 7 -4 8 -3 4 4
-10 16 -15 15 -22 -3z m33 -47 c-3 -8 -6 -5 -6 6 -1 11 2 17 5 13 3 -3 4 -12
1 -19z m-102 -58 c3 -6 -1 -7 -9 -4 -18 7 -21 14 -7 14 6 0 13 -4 16 -10z
m-102 -44 c4 -10 1 -13 -9 -9 -15 6 -19 23 -5 23 5 0 11 -7 14 -14z m-738 -71
c1 -15 -4 -21 -12 -18 -19 7 -16 -5 7 -29 11 -12 20 -19 20 -15 0 19 3 23 21
29 11 4 18 11 16 16 -3 4 1 16 9 27 14 18 14 18 14 -2 0 -12 -7 -28 -15 -37
-9 -8 -16 -19 -15 -23 0 -4 -3 -8 -7 -8 -5 0 -13 -4 -19 -8 -7 -4 -17 0 -24 8
-7 8 -17 12 -23 8 -6 -3 -7 -1 -3 5 7 11 -6 17 -28 13 -5 -1 -4 5 3 13 7 9 17
13 22 10 5 -2 11 7 15 21 7 30 19 24 19 -10z m208 0 c-3 -9 -8 -14 -10 -11 -3
3 -2 9 2 15 9 16 15 13 8 -4z m1492 5 c3 -6 -1 -7 -9 -4 -18 7 -21 14 -7 14 6
0 13 -4 16 -10z m-1739 -64 c12 -13 12 -15 -4 -13 -10 0 -19 7 -19 14 0 17 5
16 23 -1z m2010 -22 c1 -9 0 -13 -4 -10 -3 4 -7 14 -8 22 -1 9 0 13 4 10 3 -4
7 -14 8 -22z m32 1 c-3 -3 -9 2 -12 12 -6 14 -5 15 5 6 7 -7 10 -15 7 -18z
m-2263 -25 c3 -5 1 -10 -4 -10 -6 0 -11 5 -11 10 0 6 2 10 4 10 3 0 8 -4 11
-10z m2360 -40 c-3 -5 -12 -10 -18 -10 -7 0 -6 4 3 10 19 12 23 12 15 0z
m-2404 -29 c-7 -5 -10 -14 -7 -20 4 -6 5 -11 2 -11 -3 0 -10 8 -15 18 -8 14
-5 18 12 19 16 2 18 0 8 -6z m19 -35 c0 -2 -8 -10 -17 -17 -16 -13 -17 -12 -4
4 13 16 21 21 21 13z m-441 -99 c8 -10 7 -14 -2 -14 -8 0 -14 6 -14 14 0 7 1
13 2 13 2 0 8 -6 14 -13z m36 3 c3 -5 1 -10 -4 -10 -6 0 -11 5 -11 10 0 6 2
10 4 10 3 0 8 -4 11 -10z m-125 -10 c0 -5 -5 -10 -11 -10 -5 0 -7 5 -4 10 3 6
8 10 11 10 2 0 4 -4 4 -10z m3287 -12 c-3 -8 -6 -5 -6 6 -1 11 2 17 5 13 3 -3
4 -12 1 -19z m-3280 -23 c0 -8 -4 -12 -9 -9 -4 3 -8 9 -8 15 0 5 4 9 8 9 5 0
9 -7 9 -15z m115 -3 c-7 -2 -10 -7 -8 -11 3 -4 -1 -8 -9 -8 -18 0 -19 4 -2 21
6 8 16 11 22 8 5 -3 4 -7 -3 -10z m-51 -35 c-10 -9 -11 -8 -5 6 3 10 9 15 12
12 3 -3 0 -11 -7 -18z m-130 -10 c-10 -9 -11 -8 -5 6 3 10 9 15 12 12 3 -3 0
-11 -7 -18z m3533 -115 c3 -5 -1 -9 -9 -9 -8 0 -12 4 -9 9 3 4 7 8 9 8 2 0 6
-4 9 -8z m29 -56 c4 4 7 2 7 -5 0 -8 6 -11 16 -7 8 3 12 2 9 -4 -3 -6 1 -10
10 -10 9 0 13 5 10 10 -3 6 -3 11 2 11 34 6 52 5 50 -2 -1 -4 7 -15 18 -24 19
-15 19 -16 -5 -4 -14 7 -28 17 -32 23 -4 6 -10 7 -14 4 -3 -4 5 -21 19 -37 13
-16 27 -28 30 -25 3 3 8 1 11 -4 13 -21 -27 -4 -45 19 -10 13 -19 21 -19 16 0
-4 -16 -1 -35 7 -19 8 -35 12 -35 8 0 -4 -5 1 -11 11 -6 9 -14 15 -19 12 -4
-3 -6 5 -3 16 l6 21 12 -21 c6 -12 14 -18 18 -15z m-3887 -88 c4 -7 3 -8 -4
-4 -7 4 -12 2 -12 -3 0 -6 -5 -11 -11 -11 -8 0 -8 5 1 15 15 18 17 18 26 3z
m4050 -13 c-2 -14 -16 -22 -16 -10 0 3 0 10 0 15 0 6 4 10 9 10 5 0 8 -7 7
-15z m21 -45 c-1 -21 -10 -18 -13 5 -1 8 2 15 6 15 5 0 8 -9 7 -20z m123 -84
c0 -3 -4 -8 -10 -11 -5 -3 -10 -1 -10 4 0 6 5 11 10 11 6 0 10 -2 10 -4z
m-4400 -81 c0 -12 -19 -12 -23 0 -4 9 -1 12 9 8 7 -3 14 -7 14 -8z m4535 -14
c3 -5 2 -12 -3 -15 -5 -3 -9 1 -9 9 0 17 3 19 12 6z m-4640 -41 c3 -5 -1 -10
-10 -10 -9 0 -13 5 -10 10 3 6 8 10 10 10 2 0 7 -4 10 -10z m44 -114 c-3 -3
-11 5 -18 17 -13 21 -12 21 5 5 10 -10 16 -20 13 -22z m-228 -133 c13 -17 13
-17 -6 -3 -11 8 -22 16 -24 17 -2 2 0 3 6 3 6 0 17 -8 24 -17z m5009 -28 c11
-13 10 -14 -4 -9 -9 3 -16 10 -16 15 0 13 6 11 20 -6z m-5000 -34 c-5 -10 -6
-22 -2 -26 4 -5 2 -5 -5 -2 -6 4 -19 -1 -29 -10 -17 -17 -18 -17 -11 0 4 10 2
17 -6 17 -7 0 -4 5 6 11 9 5 22 7 27 4 9 -6 14 8 11 28 -1 5 3 6 9 2 7 -4 7
-12 0 -24z m-95 -81 c3 -6 -1 -7 -9 -4 -18 7 -21 14 -7 14 6 0 13 -4 16 -10z
m-80 -70 c3 -5 1 -10 -4 -10 -6 0 -11 5 -11 10 0 6 2 10 4 10 3 0 8 -4 11 -10z
m5 -24 c0 -2 -7 -7 -16 -10 -8 -3 -12 -2 -9 4 6 10 25 14 25 6z m50 -6 c0 -5
-2 -10 -4 -10 -3 0 -8 5 -11 10 -3 6 -1 10 4 10 6 0 11 -4 11 -10z m-83 -125
c0 -8 -4 -12 -9 -9 -5 3 -6 10 -3 15 9 13 12 11 12 -6z m5413 -49 c0 -3 -4 -8
-10 -11 -5 -3 -10 -1 -10 4 0 6 5 11 10 11 6 0 10 -2 10 -4z m-5463 -28 c-3
-8 -6 -5 -6 6 -1 11 2 17 5 13 3 -3 4 -12 1 -19z m-41 -22 c-7 -6 -16 -18 -19
-26 -4 -8 -4 -1 -2 15 2 17 4 31 4 32 1 1 8 0 16 -3 13 -6 14 -8 1 -18z m5
-29 c-10 -9 -11 -8 -5 6 3 10 9 15 12 12 3 -3 0 -11 -7 -18z m-28 -65 c-6 -15
-5 -16 13 -2 18 14 18 14 5 -2 -16 -21 -30 -15 -28 12 1 10 5 17 9 14 4 -3 4
-12 1 -22z m-26 -1 c0 -11 -6 -17 -14 -14 -14 6 -17 16 -6 26 12 13 22 7 20
-12z m5578 -101 c3 -5 1 -10 -4 -10 -6 0 -11 5 -11 10 0 6 2 10 4 10 3 0 8 -4
11 -10z m93 -86 c-8 -8 -23 -11 -37 -7 -23 6 -23 6 5 18 34 14 52 8 32 -11z
m-5808 -114 c0 -5 -2 -10 -4 -10 -3 0 -8 5 -11 10 -3 6 -1 10 4 10 6 0 11 -4
11 -10z m-20 -20 c0 -6 14 -8 33 -5 22 4 28 2 17 -4 -8 -5 -17 -8 -21 -5 -4 2
-9 -1 -11 -8 -2 -6 -12 -12 -21 -14 -9 -1 -15 2 -12 6 3 5 1 11 -5 15 -12 7
-4 25 11 25 5 0 9 -5 9 -10z m5876 -134 c4 -25 -11 -19 -24 10 -11 22 -10 24
5 16 9 -6 18 -17 19 -26z m-5852 -24 c3 -5 -1 -9 -9 -9 -8 0 -12 4 -9 9 3 4 7
8 9 8 2 0 6 -4 9 -8z m5925 -153 c11 -18 11 -23 0 -30 -8 -4 -16 -5 -19 -2 -3
3 1 8 8 10 10 4 9 9 -4 24 -9 10 -13 19 -8 19 5 0 15 -10 23 -21z m-5982 -101
c-12 -32 -14 -35 -24 -19 -7 11 -8 23 -2 32 7 12 9 12 10 -1 0 -9 4 -7 11 8
16 33 19 22 5 -20z m6039 -528 c0 -11 -4 -20 -8 -20 -4 0 -8 5 -8 11 0 5 -6 7
-12 4 -7 -4 -4 1 6 9 11 9 20 16 21 16 0 0 1 -9 1 -20z m-6111 -659 c3 -5 2
-12 -3 -15 -5 -3 -9 1 -9 9 0 17 3 19 12 6z m6107 -145 c7 4 8 2 4 -5 -6 -8
-12 -9 -20 -2 -7 6 -16 8 -20 4 -4 -4 -4 1 0 11 6 16 8 17 16 2 5 -9 14 -13
20 -10z m76 -141 c-3 -3 -9 2 -12 12 -6 14 -5 15 5 6 7 -7 10 -15 7 -18z
m-613 -2004 c-3 -6 -11 -11 -16 -11 -5 0 -4 6 3 14 14 16 24 13 13 -3z m-5016
-402 c-22 -13 -31 -11 -17 5 7 8 17 12 22 9 4 -3 2 -9 -5 -14z m-294 -2839
c-3 -5 -11 -10 -16 -10 -6 0 -7 5 -4 10 3 6 11 10 16 10 6 0 7 -4 4 -10z
m8920 -478 c-3 -3 -11 0 -18 7 -9 10 -8 11 6 5 10 -3 15 -9 12 -12z m-11470
-382 c-3 -5 -12 -10 -18 -10 -7 0 -6 4 3 10 19 12 23 12 15 0z m12565 -215 c7
-9 8 -15 2 -15 -5 0 -12 7 -16 15 -3 8 -4 15 -2 15 2 0 9 -7 16 -15z m-13937
-1070 c-3 -9 -8 -14 -10 -11 -3 3 -2 9 2 15 9 16 15 13 8 -4z"/>
<path d="M12940 15540 c-9 -6 -10 -10 -3 -10 6 0 15 5 18 10 8 12 4 12 -15 0z"/>
<path d="M7110 15396 c0 -2 8 -10 18 -17 15 -13 16 -12 3 4 -13 16 -21 21 -21
13z"/>
<path d="M10170 17645 c0 -8 29 -12 39 -5 9 5 4 8 -13 8 -14 0 -26 -2 -26 -3z"/>
<path d="M9610 17606 c0 -2 7 -7 16 -10 8 -3 12 -2 9 4 -6 10 -25 14 -25 6z"/>
<path d="M9567 17579 c7 -7 15 -10 18 -7 3 3 -2 9 -12 12 -14 6 -15 5 -6 -5z"/>
<path d="M10620 17567 c0 -3 11 -12 23 -20 20 -13 24 -13 24 -1 0 8 -2 12 -5
9 -3 -2 -13 0 -23 6 -11 5 -19 8 -19 6z"/>
<path d="M9377 17544 c5 -14 3 -15 -15 -5 -18 10 -21 9 -16 -4 3 -8 10 -12 15
-9 5 3 9 0 9 -5 0 -6 4 -11 8 -11 11 0 13 39 1 45 -5 3 -6 -1 -2 -11z"/>
<path d="M9325 17521 c-6 -11 13 -26 22 -17 4 3 1 6 -6 6 -7 0 -9 5 -6 10 3 6
4 10 1 10 -3 0 -7 -4 -11 -9z"/>
<path d="M9090 17460 c0 -5 5 -10 11 -10 5 0 7 5 4 10 -3 6 -8 10 -11 10 -2 0
-4 -4 -4 -10z"/>
<path d="M11243 17435 c0 -8 4 -12 9 -9 5 3 6 10 3 15 -9 13 -12 11 -12 -6z"/>
<path d="M9205 17430 c-3 -6 1 -7 9 -4 18 7 21 14 7 14 -6 0 -13 -4 -16 -10z"/>
<path d="M8714 17336 c1 -8 5 -18 8 -22 4 -3 5 1 4 10 -1 8 -5 18 -8 22 -4 3
-5 -1 -4 -10z"/>
<path d="M8758 17323 c7 -3 16 -2 19 1 4 3 -2 6 -13 5 -11 0 -14 -3 -6 -6z"/>
<path d="M8617 17263 c-4 -3 -7 -11 -7 -17 0 -6 5 -5 12 2 6 6 9 14 7 17 -3 3
-9 2 -12 -2z"/>
<path d="M11810 17161 c0 -6 4 -13 10 -16 6 -3 7 1 4 9 -7 18 -14 21 -14 7z"/>
<path d="M11946 17082 c-3 -5 1 -9 9 -9 8 0 15 4 15 9 0 4 -4 8 -9 8 -6 0 -12
-4 -15 -8z"/>
<path d="M7970 16765 c-7 -9 -8 -15 -2 -15 5 0 12 7 16 15 3 8 4 15 2 15 -2 0
-9 -7 -16 -15z"/>
<path d="M7990 16740 c0 -7 -8 -22 -17 -33 -17 -18 -17 -18 9 -7 14 7 25 18
24 26 -3 19 -16 30 -16 14z"/>
<path d="M7653 16515 c0 -8 4 -12 9 -9 5 3 6 10 3 15 -9 13 -12 11 -12 -6z"/>
<path d="M7744 16522 c3 -5 0 -13 -6 -15 -9 -4 -10 -6 -1 -6 17 -1 25 16 12
25 -7 4 -9 3 -5 -4z"/>
<path d="M7696 16478 c3 -5 10 -6 15 -3 13 9 11 12 -6 12 -8 0 -12 -4 -9 -9z"/>
<path d="M7641 16443 c7 -10 14 -19 15 -21 1 -1 9 0 18 4 23 9 20 24 -4 19
-11 -2 -20 0 -20 6 0 5 -5 9 -11 9 -8 0 -7 -6 2 -17z"/>
<path d="M7535 16440 c3 -5 8 -10 11 -10 2 0 4 5 4 10 0 6 -5 10 -11 10 -5 0
-7 -4 -4 -10z"/>
<path d="M7594 16429 c-4 -7 -3 -9 4 -5 6 3 13 2 17 -4 3 -5 1 -10 -5 -10 -6
0 -8 -5 -4 -11 4 -8 9 -7 15 2 8 14 13 5 9 -16 -1 -5 5 -4 12 4 10 11 10 14 0
18 -6 3 -9 10 -5 16 3 7 3 9 -2 5 -4 -4 -14 -3 -21 3 -8 7 -14 6 -20 -2z"/>
<path d="M7553 16365 c0 -8 4 -12 9 -9 5 3 6 10 3 15 -9 13 -12 11 -12 -6z"/>
<path d="M7544 16319 c-4 -7 -3 -9 4 -5 5 3 13 0 15 -6 4 -9 6 -10 6 -1 1 17
-16 25 -25 12z"/>
<path d="M7494 16250 c0 -13 4 -16 10 -10 7 7 7 13 0 20 -6 6 -10 3 -10 -10z"/>
<path d="M7380 16040 c0 -5 5 -10 11 -10 5 0 7 5 4 10 -3 6 -8 10 -11 10 -2 0
-4 -4 -4 -10z"/>
<path d="M7359 15953 c-13 -16 -12 -17 4 -4 16 13 21 21 13 21 -2 0 -10 -8
-17 -17z"/>
<path d="M7375 15940 c-3 -5 -1 -10 4 -10 6 0 11 5 11 10 0 6 -2 10 -4 10 -3
0 -8 -4 -11 -10z"/>
<path d="M7347 15885 c3 -8 9 -12 14 -9 12 7 11 11 -5 17 -10 4 -13 1 -9 -8z"/>
<path d="M12853 15745 c0 -6 9 -12 20 -12 25 -2 45 -30 41 -59 -1 -13 2 -24 7
-24 6 0 9 -8 7 -17 -2 -12 3 -18 15 -16 13 1 17 -4 12 -15 -5 -13 -4 -14 6 -5
10 10 9 15 0 27 -7 9 -9 21 -5 28 12 19 14 39 3 32 -5 -3 -9 0 -9 7 0 10 -3
10 -12 1 -8 -8 -8 -15 2 -27 7 -8 8 -15 2 -15 -13 0 -23 26 -16 45 4 8 2 15
-3 15 -6 0 -15 11 -21 24 -11 25 -49 33 -49 11z"/>
<path d="M12920 15726 c0 -2 7 -7 16 -10 8 -3 12 -2 9 4 -6 10 -25 14 -25 6z"/>
<path d="M7203 15675 c-10 -10 -9 -14 2 -19 17 -6 26 5 17 21 -5 8 -11 7 -19
-2z"/>
<path d="M7170 15640 c0 -5 5 -10 10 -10 6 0 10 5 10 10 0 6 -4 10 -10 10 -5
0 -10 -4 -10 -10z"/>
<path d="M12973 15640 c2 -8 12 -16 23 -17 13 -2 15 -1 4 4 -8 3 -19 11 -23
17 -6 7 -7 6 -4 -4z"/>
<path d="M7201 15621 c-8 -5 -9 -11 -3 -15 5 -3 12 1 16 9 6 17 6 18 -13 6z"/>
<path d="M7116 15607 c3 -10 9 -15 12 -12 3 3 0 11 -7 18 -10 9 -11 8 -5 -6z"/>
<path d="M7155 15609 c-4 -6 -5 -12 -2 -15 2 -3 7 2 10 11 7 17 1 20 -8 4z"/>
<path d="M12990 15550 c0 -5 5 -10 11 -10 5 0 7 5 4 10 -3 6 -8 10 -11 10 -2
0 -4 -4 -4 -10z"/>
<path d="M7134 15511 c7 -11 -28 -43 -37 -34 -4 3 -7 1 -7 -5 0 -7 5 -12 10
-12 6 0 13 0 18 0 4 0 7 4 7 10 0 5 9 15 19 23 17 13 17 14 2 20 -9 4 -15 3
-12 -2z"/>
<path d="M7075 15440 c3 -5 8 -10 11 -10 2 0 4 5 4 10 0 6 -5 10 -11 10 -5 0
-7 -4 -4 -10z"/>
<path d="M12946 15432 c-2 -4 2 -16 10 -27 8 -10 14 -14 14 -8 0 7 -5 15 -10
18 -6 4 -8 11 -5 16 4 5 4 9 1 9 -3 0 -7 -3 -10 -8z"/>
<path d="M12979 15383 c0 -5 -2 -16 -4 -25 -2 -10 2 -21 7 -25 7 -4 8 -1 3 7
-6 9 -4 12 7 8 8 -4 15 -1 15 7 0 7 -6 11 -14 8 -9 -4 -11 0 -7 11 3 9 3 16 0
16 -3 0 -6 -3 -7 -7z"/>
<path d="M7054 15258 c-5 -7 -2 -8 6 -3 9 6 12 4 8 -7 -4 -8 -1 -15 6 -15 17
0 16 25 0 31 -8 3 -16 0 -20 -6z"/>
<path d="M7015 15241 c-3 -5 -2 -12 3 -15 5 -3 9 1 9 9 0 17 -3 19 -12 6z"/>
<path d="M13048 15213 c-19 -5 -24 -18 -10 -27 10 -6 26 5 30 22 1 6 1 11 0
11 -2 -1 -11 -3 -20 -6z"/>
<path d="M7110 15179 c0 -5 5 -7 10 -4 6 3 10 8 10 11 0 2 -4 4 -10 4 -5 0
-10 -5 -10 -11z"/>
<path d="M13060 15176 c0 -2 7 -7 16 -10 8 -3 12 -2 9 4 -6 10 -25 14 -25 6z"/>
<path d="M13063 15145 c0 -7 6 -11 14 -8 7 3 13 6 13 8 0 2 -6 5 -13 8 -8 3
-14 -1 -14 -8z"/>
<path d="M7045 15113 c-13 -30 -14 -43 -3 -50 6 -3 8 -1 4 5 -3 5 0 13 6 15
10 4 9 6 -1 6 -11 1 -10 6 4 21 10 11 13 20 8 20 -6 0 -14 -8 -18 -17z"/>
<path d="M7087 15113 c4 -11 3 -14 -5 -9 -7 4 -12 2 -12 -4 0 -7 7 -9 16 -6 9
3 17 6 20 6 2 0 1 7 -2 15 -4 8 -10 15 -15 15 -4 0 -5 -7 -2 -17z"/>
<path d="M13083 15024 c0 -8 4 -14 9 -14 5 0 6 -6 2 -12 -4 -7 -3 -9 1 -5 14
12 14 35 1 40 -7 3 -13 -1 -13 -9z"/>
<path d="M7015 15020 c-3 -5 -1 -10 4 -10 6 0 11 5 11 10 0 6 -2 10 -4 10 -3
0 -8 -4 -11 -10z"/>
<path d="M13117 14995 c-4 -8 -3 -16 1 -19 4 -3 9 4 9 15 2 23 -3 25 -10 4z"/>
<path d="M7014 14943 c4 -4 16 -8 28 -10 28 -4 18 6 -12 12 -12 2 -20 1 -16
-2z"/>
<path d="M7033 14905 c0 -8 4 -12 9 -9 5 3 6 10 3 15 -9 13 -12 11 -12 -6z"/>
<path d="M13076 14782 c-3 -4 4 -9 15 -9 23 -2 25 3 4 10 -8 4 -16 3 -19 -1z"/>
<path d="M13100 14726 c0 -2 8 -10 18 -17 15 -13 16 -12 3 4 -13 16 -21 21
-21 13z"/>
<path d="M13100 14626 c0 -2 8 -10 18 -17 15 -13 16 -12 3 4 -13 16 -21 21
-21 13z"/>
<path d="M6975 14580 c3 -5 8 -10 11 -10 2 0 4 5 4 10 0 6 -5 10 -11 10 -5 0
-7 -4 -4 -10z"/>
<path d="M13135 14581 c-3 -5 -2 -12 3 -15 5 -3 9 1 9 9 0 17 -3 19 -12 6z"/>
<path d="M13113 14325 c0 -8 4 -12 9 -9 5 3 6 10 3 15 -9 13 -12 11 -12 -6z"/>
<path d="M13113 14265 c0 -8 4 -12 9 -9 5 3 6 10 3 15 -9 13 -12 11 -12 -6z"/>
<path d="M7010 14059 c0 -5 5 -7 10 -4 6 3 10 8 10 11 0 2 -4 4 -10 4 -5 0
-10 -5 -10 -11z"/>
<path d="M7015 13689 c-4 -6 -5 -12 -2 -15 2 -3 7 2 10 11 7 17 1 20 -8 4z"/>
<path d="M13156 13593 c-6 -14 -5 -15 5 -6 7 7 10 15 7 18 -3 3 -9 -2 -12 -12z"/>
<path d="M7036 13575 c3 -19 1 -24 -7 -19 -8 4 -9 3 -5 -4 10 -16 14 -15 25 7
8 14 7 22 -4 31 -12 10 -13 7 -9 -15z"/>
<path d="M13115 13570 c-8 -13 9 -20 24 -11 10 6 9 10 -3 14 -8 3 -18 2 -21
-3z"/>
<path d="M13305 12290 c-3 -5 -1 -10 4 -10 6 0 11 5 11 10 0 6 -2 10 -4 10 -3
0 -8 -4 -11 -10z"/>
<path d="M13235 12140 c-3 -5 -1 -10 4 -10 6 0 11 5 11 10 0 6 -2 10 -4 10 -3
0 -8 -4 -11 -10z"/>
<path d="M13034 11825 c-9 -14 -14 -28 -10 -32 3 -3 6 -1 6 5 0 7 9 21 20 32
11 11 16 20 10 20 -5 0 -17 -11 -26 -25z"/>
<path d="M4916 7503 c-6 -14 -5 -15 5 -6 7 7 10 15 7 18 -3 3 -9 -2 -12 -12z"/>
<path d="M3086 5673 c-6 -14 -5 -15 5 -6 7 7 10 15 7 18 -3 3 -9 -2 -12 -12z"/>
</g>
</svg>
